<svg width="146" height="44" viewBox="0 0 146 44" fill="none" xmlns="http://www.w3.org/2000/svg">
<g id="Group">
<path id="Vector" fill-rule="evenodd" clip-rule="evenodd" d="M90.0981 34.0522C81.6586 40.2411 69.4259 43.5432 58.8938 43.5432C44.126 43.5432 30.8313 38.1089 20.7732 29.0709C19.9831 28.36 20.6911 27.3915 21.6393 27.9451C32.4939 34.2284 45.9151 38.0083 59.7788 38.0083C69.1288 38.0083 79.4143 36.0837 88.8717 32.0899C90.3004 31.4861 91.4952 33.0207 90.0981 34.0522Z" fill="#647067"/>
<path id="Vector_2" fill-rule="evenodd" clip-rule="evenodd" d="M93.6069 30.0568C92.5322 28.6856 86.4758 29.4089 83.7573 29.7297C82.9292 29.8304 82.8029 29.1133 83.5488 28.5976C88.3723 25.2202 96.2873 26.1951 97.2102 27.3271C98.1332 28.4656 96.97 36.3589 92.4372 40.1263C91.7418 40.705 91.078 40.3968 91.3878 39.6294C92.4057 37.1011 94.6878 31.4343 93.6069 30.0568Z" fill="#647067"/>
<path id="Vector_3" fill-rule="evenodd" clip-rule="evenodd" d="M83.9472 4.75481V1.47171C83.9472 0.974812 84.3265 0.641474 84.7817 0.641474H99.5557C100.03 0.641474 100.409 0.981025 100.409 1.47171V4.28305C100.403 4.75481 100.005 5.3712 99.2966 6.34608L91.6409 17.2207C94.4857 17.1516 97.4885 17.5729 100.068 19.0196C100.649 19.3465 100.807 19.8247 100.852 20.2963V23.7996C100.852 24.2775 100.321 24.8373 99.7644 24.548C95.219 22.177 89.1817 21.919 84.1559 24.5732C83.6438 24.85 83.1064 24.2965 83.1064 23.8185V20.4913C83.1064 19.9567 83.1127 19.0447 83.65 18.2334L92.5196 5.57883H84.8005C84.3265 5.57883 83.9472 5.2455 83.9472 4.75481ZM30.0539 25.2398H25.559C25.1291 25.2085 24.7878 24.8877 24.7562 24.4788V1.52835C24.7562 1.06916 25.1418 0.704327 25.6222 0.704327H29.8136C30.2498 0.72311 30.5975 1.05659 30.6292 1.47157V4.4719H30.7114C31.805 1.57242 33.8595 0.220286 36.6285 0.220286C39.4416 0.220286 41.1992 1.57242 42.4636 4.4719C43.5509 1.57242 46.0228 0.220286 48.6716 0.220286C50.5554 0.220286 52.6164 0.993884 53.8744 2.72978C55.2968 4.6606 55.006 7.46573 55.006 9.92494L54.9996 24.4098C54.9996 24.8689 54.614 25.24 54.1336 25.24H49.6451C49.1963 25.2086 48.8359 24.8502 48.8359 24.4098V12.2457C48.8359 11.2771 48.9245 8.86179 48.7095 7.9437C48.3745 6.40272 47.3693 5.96867 46.0669 5.96867C44.9796 5.96867 43.8417 6.69198 43.3801 7.84935C42.9187 9.00671 42.963 10.9437 42.963 12.2457V24.4096C42.963 24.8688 42.5773 25.2398 42.0969 25.2398H37.6084C37.1532 25.2085 36.7992 24.85 36.7992 24.4096L36.7929 12.2457C36.7929 9.68581 37.2164 5.91853 34.0239 5.91853C30.7936 5.91853 30.9199 9.59146 30.9199 12.2457V24.4096C30.9199 24.8688 30.5343 25.2398 30.0539 25.2398ZM113.129 0.220141C119.798 0.220141 123.408 5.91839 123.408 13.164C123.408 20.1642 119.419 25.718 113.129 25.718C106.579 25.718 103.014 20.0196 103.014 12.9186C103.014 5.77375 106.623 0.220141 113.129 0.220141ZM113.167 4.9058C109.854 4.9058 109.645 9.39654 109.645 12.1953C109.645 15.0006 109.601 20.9881 113.129 20.9881C116.612 20.9881 116.776 16.1578 116.776 13.2143C116.776 11.2771 116.694 8.9625 116.106 7.12603C115.601 5.52841 114.595 4.9058 113.167 4.9058ZM132.056 25.2398H127.58C127.132 25.2085 126.771 24.85 126.771 24.4096L126.765 1.45278C126.803 1.03145 127.176 0.704327 127.631 0.704327H131.797C132.189 0.72311 132.511 0.987527 132.6 1.34586V4.85552H132.682C133.94 1.71706 135.704 0.220141 138.808 0.220141C140.824 0.220141 142.791 0.943313 144.055 2.92456C145.231 4.76102 145.231 7.84935 145.231 10.0696V24.5165C145.18 24.9191 144.807 25.2398 144.365 25.2398H139.857C139.446 25.2085 139.105 24.9065 139.061 24.5165V12.0507C139.061 9.54118 139.352 5.86796 136.248 5.86796C135.154 5.86796 134.149 6.59763 133.649 7.70457C133.017 9.10728 132.935 10.5035 132.935 12.0508V24.4096C132.929 24.8688 132.537 25.2398 132.056 25.2398ZM72.1697 14.2773C72.1697 16.0194 72.214 17.4724 71.3288 19.0194C70.6145 20.2775 69.4767 21.0509 68.2185 21.0509C66.4927 21.0509 65.4812 19.7429 65.4812 17.8119C65.4812 14.0004 68.914 13.3086 72.1697 13.3086V14.2773ZM76.7023 25.177C76.4053 25.4411 75.9754 25.4601 75.6404 25.2839C74.1484 24.0511 73.8766 23.4788 73.0611 22.3027C70.5955 24.8059 68.8445 25.5544 65.6519 25.5544C61.8651 25.5544 58.9255 23.2335 58.9255 18.5857C58.9255 14.9565 60.8979 12.4847 63.7174 11.2771C66.1577 10.2079 69.5651 10.0191 72.1698 9.72352V9.14499C72.1698 8.08198 72.2519 6.82405 71.6197 5.90582C71.0761 5.08193 70.0265 4.74224 69.0973 4.74224C67.384 4.74224 65.8606 5.6164 65.4876 7.42787C65.4116 7.83042 65.1145 8.22661 64.7037 8.24554L60.3479 7.78014C59.9813 7.69836 59.5703 7.40273 59.6778 6.84298C60.6767 1.58499 65.4559 -6.10352e-05 69.7297 -6.10352e-05C71.917 -6.10352e-05 74.7744 0.578621 76.5003 2.22653C78.6875 4.25805 78.4789 6.96868 78.4789 9.91859V16.8873C78.4789 18.9819 79.3515 19.8999 80.1732 21.0322C80.4578 21.4347 80.5209 21.919 80.1543 22.2209C79.2376 22.9819 77.6065 24.397 76.7089 25.1896L76.7026 25.177M13.2442 14.2773C13.2442 16.0194 13.2885 17.4724 12.4033 19.0194C11.689 20.2775 10.5574 21.0509 9.29303 21.0509C7.56725 21.0509 6.56196 19.7429 6.56196 17.8119C6.56196 14.0004 9.99478 13.3086 13.2442 13.3086V14.2773ZM17.7768 25.177C17.4798 25.4411 17.0499 25.4601 16.7149 25.2839C15.2229 24.0511 14.9573 23.4788 14.1356 22.3027C11.67 24.8059 9.92536 25.5544 6.72636 25.5544C2.94601 25.5544 0 23.2335 0 18.5857C0 14.9565 1.97877 12.4847 4.79189 11.2771C7.2322 10.2079 10.6396 10.0191 13.2442 9.72352V9.14499C13.2442 8.08198 13.3264 6.82405 12.7004 5.90582C12.1504 5.08193 11.1011 4.74224 10.1781 4.74224C8.46492 4.74224 6.93506 5.6164 6.56196 7.42787C6.48615 7.83042 6.18901 8.22661 5.7844 8.24554L1.42239 7.78014C1.05568 7.69836 0.651215 7.40273 0.752295 6.84298C1.75744 1.58499 6.53045 -6.10352e-05 10.804 -6.10352e-05C12.9912 -6.10352e-05 15.8487 0.578621 17.5747 2.22653C19.7618 4.25805 19.5533 6.96868 19.5533 9.91859V16.8873C19.5533 18.9819 20.4257 19.8999 21.2476 21.0322C21.5385 21.4347 21.6016 21.919 21.2349 22.2209C20.3182 22.9819 18.6873 24.397 17.7896 25.1896L17.7768 25.177Z" fill="#647067"/>
</g>
</svg>
