<svg width="20" height="20" viewBox="0 0 20 20" fill="none" xmlns="http://www.w3.org/2000/svg">
<g id="Monotone chevron left">
<path id="Subtract" fill-rule="evenodd" clip-rule="evenodd" d="M10.834 4.99935C10.834 4.07887 11.5802 3.33268 12.5007 3.33268C12.9609 3.33268 13.334 2.95959 13.334 2.49935C13.334 2.03911 12.9609 1.66602 12.5007 1.66602C10.6597 1.66602 9.16732 3.1584 9.16732 4.99935V5.44216C9.08102 5.38566 8.9992 5.3195 8.92338 5.24368C7.67746 3.99777 5.65744 3.99777 4.41153 5.24368L3.58273 6.07248L3.57205 6.08316L3.57202 6.08319L3.57201 6.0832C3.49323 6.16197 3.4391 6.21609 3.38968 6.26907C2.30925 7.42712 1.97879 9.09759 2.53691 10.5798C2.56244 10.6476 2.59188 10.7182 2.63472 10.821L2.63475 10.8211L2.63475 10.8211L2.64057 10.8351L4.81234 16.0473C5.55809 17.8371 7.88203 18.2969 9.25308 16.9258C9.66603 16.5129 10.3355 16.5129 10.7485 16.9258C12.1195 18.2969 14.4435 17.8371 15.1892 16.0473L17.361 10.8351L17.3668 10.8212C17.4097 10.7183 17.4391 10.6476 17.4647 10.5798C18.0228 9.09759 17.6923 7.42712 16.6119 6.26907C16.5625 6.21608 16.5083 6.16194 16.4295 6.08313L16.4295 6.0831L16.4188 6.07248L15.59 5.24368C14.3441 3.99777 12.3241 3.99777 11.0782 5.24368C11.0023 5.31958 10.9204 5.3858 10.834 5.44234V4.99935ZM12.5003 10.833C12.5003 11.2932 12.1272 11.6663 11.667 11.6663C11.2068 11.6663 10.8337 11.2932 10.8337 10.833C10.8337 10.3728 11.2068 9.99967 11.667 9.99967C12.1272 9.99967 12.5003 10.3728 12.5003 10.833ZM8.33366 11.6663C8.7939 11.6663 9.16699 11.2932 9.16699 10.833C9.16699 10.3728 8.7939 9.99967 8.33366 9.99967C7.87342 9.99967 7.50033 10.3728 7.50033 10.833C7.50033 11.2932 7.87342 11.6663 8.33366 11.6663Z" fill="#C5C8C6"/>
</g>
</svg>
