<svg width="24" height="24" viewBox="0 0 24 24" fill="none" xmlns="http://www.w3.org/2000/svg">
<g id="Solid arrow right sm">
<path id="Vector" d="M19.1708 13H3C2.44772 13 2 12.5523 2 12C2 11.4477 2.44772 11 3 11H19.1708C19.0725 10.7375 18.8907 10.4412 18.5313 10.0179C18.1308 9.54612 17.5711 8.98532 16.7674 8.18162L15.2929 6.70711C14.9024 6.31658 14.9024 5.68342 15.2929 5.29289C15.6834 4.90237 16.3166 4.90237 16.7071 5.29289L18.2119 6.79767C18.9782 7.56399 19.5964 8.18215 20.056 8.72358C20.5293 9.28106 20.893 9.82271 21.0984 10.4549C21.4247 11.4591 21.4247 12.5409 21.0984 13.5451C20.893 14.1773 20.5293 14.7189 20.056 15.2764C19.5964 15.8179 18.9783 16.436 18.2119 17.2023L16.7071 18.7071C16.3166 19.0976 15.6834 19.0976 15.2929 18.7071C14.9024 18.3166 14.9024 17.6834 15.2929 17.2929L16.7674 15.8184C17.5711 15.0147 18.1308 14.4539 18.5313 13.9821C18.8907 13.5588 19.0725 13.2625 19.1708 13Z" fill="#2F3C33"/>
</g>
</svg>
