<svg width="25" height="24" viewBox="0 0 25 24" fill="none" xmlns="http://www.w3.org/2000/svg">
<g id="Solid arrow right sm">
<path id="Vector" d="M4.69808 13C4.71853 13.0792 4.74145 13.1579 4.76684 13.2361C4.89527 13.6313 5.144 14.049 5.64523 14.6394C6.15404 15.2387 6.86225 15.948 7.86396 16.9497L10.2071 19.2929C10.5976 19.6834 10.5976 20.3166 10.2071 20.7071C9.81658 21.0976 9.18342 21.0976 8.79289 20.7071L6.41881 18.333C5.45498 17.3692 4.68845 16.6027 4.12055 15.9337C3.53901 15.2487 3.10724 14.6005 2.86473 13.8541C2.71103 13.3811 2.61766 12.8937 2.58463 12.4032C2.53022 12.2799 2.5 12.1435 2.5 12C2.5 11.8565 2.53022 11.7201 2.58463 11.5968C2.61766 11.1063 2.71103 10.6189 2.86473 10.1459C3.10724 9.39952 3.53901 8.7513 4.12055 8.06627C4.68845 7.39732 5.45498 6.6308 6.4188 5.66699L8.79289 3.29289C9.18342 2.90237 9.81658 2.90237 10.2071 3.29289C10.5976 3.68342 10.5976 4.31658 10.2071 4.70711L7.86396 7.05025C6.86225 8.05196 6.15404 8.76127 5.64523 9.36062C5.144 9.95105 4.89527 10.3687 4.76684 10.7639C4.74145 10.8421 4.71853 10.9208 4.69808 11H21.5C22.0523 11 22.5 11.4477 22.5 12C22.5 12.5523 22.0523 13 21.5 13H4.69808Z" fill="white"/>
</g>
</svg>
