<svg width="32" height="32" viewBox="0 0 32 32" fill="none" xmlns="http://www.w3.org/2000/svg">
<g id="Solid arrow right sm">
<g id="Vector">
<path d="M10.6665 4C11.4029 4 11.9998 4.59695 11.9998 5.33333V6.67247C12.3468 6.6666 12.7442 6.66664 13.2166 6.66667H18.7831C19.2555 6.66664 19.6529 6.6666 19.9998 6.67247V5.33333C19.9998 4.59695 20.5968 4 21.3332 4C22.0696 4 22.6665 4.59695 22.6665 5.33333V7.05513C25.2202 7.8152 27.3092 9.6302 28.4335 12H3.56619C4.6905 9.6302 6.77953 7.81521 9.33317 7.05514V5.33333C9.33317 4.59695 9.93012 4 10.6665 4Z" fill="#F43F5E"/>
<path fill-rule="evenodd" clip-rule="evenodd" d="M2.76224 14.6667H29.2375C29.243 14.705 29.2483 14.7433 29.2533 14.7818C29.3333 15.3894 29.3333 16.0895 29.3332 17.2167V17.45C29.3333 18.5772 29.3333 19.2773 29.2533 19.8849C28.702 24.0731 25.4063 27.3688 21.2181 27.9202C20.6104 28.0002 19.9103 28.0001 18.7831 28H13.2166C12.0894 28.0001 11.3893 28.0002 10.7816 27.9202C6.59343 27.3688 3.29775 24.0731 2.74636 19.8849C2.66636 19.2773 2.66642 18.5772 2.66651 17.4499V17.2168C2.66642 16.0895 2.66636 15.3894 2.74636 14.7818C2.75143 14.7433 2.75672 14.705 2.76224 14.6667ZM15.9998 18.6667C15.2635 18.6667 14.6665 19.2636 14.6665 20C14.6665 20.7364 15.2635 21.3333 15.9998 21.3333C16.7362 21.3333 17.3332 20.7364 17.3332 20C17.3332 19.2636 16.7362 18.6667 15.9998 18.6667ZM19.9998 20C19.9998 19.2636 20.5968 18.6667 21.3332 18.6667C22.0695 18.6667 22.6665 19.2636 22.6665 20C22.6665 20.7364 22.0695 21.3333 21.3332 21.3333C20.5968 21.3333 19.9998 20.7364 19.9998 20ZM10.6665 18.6667C9.93012 18.6667 9.33317 19.2636 9.33317 20C9.33317 20.7364 9.93012 21.3333 10.6665 21.3333C11.4029 21.3333 11.9998 20.7364 11.9998 20C11.9998 19.2636 11.4029 18.6667 10.6665 18.6667Z" fill="#F43F5E"/>
</g>
</g>
</svg>
