<svg width="24" height="24" viewBox="0 0 24 24" fill="none" xmlns="http://www.w3.org/2000/svg">
<g id="Solid arrow right sm">
<path id="Vector" d="M11.968 2C11.5294 1.99999 11.1509 1.99998 10.8376 2.02135C10.5078 2.04386 10.1779 2.09336 9.85195 2.22836C9.11687 2.53285 8.53285 3.11687 8.22836 3.85195C8.09336 4.17788 8.04386 4.50779 8.02135 4.83762C7.99998 5.15088 7.99999 5.52936 8 5.96801L8 6C8 6.47963 7.99946 6.78926 7.98329 7.02624C7.96774 7.25424 7.94112 7.34107 7.92388 7.38269C7.82239 7.62771 7.62771 7.82239 7.38269 7.92388C7.34107 7.94112 7.25424 7.96774 7.02624 7.98329C6.78926 7.99946 6.47963 8 6 8L5.96801 8C5.52936 7.99999 5.15088 7.99998 4.83762 8.02135C4.50779 8.04386 4.17788 8.09336 3.85195 8.22836C3.11687 8.53285 2.53285 9.11687 2.22836 9.85195C2.09336 10.1779 2.04386 10.5078 2.02135 10.8376C1.99998 11.1509 1.99999 11.5293 2 11.968V12.032C1.99999 12.4706 1.99998 12.8491 2.02135 13.1624C2.04386 13.4922 2.09336 13.8221 2.22836 14.1481C2.53285 14.8831 3.11687 15.4672 3.85195 15.7716C4.17788 15.9066 4.50779 15.9561 4.83762 15.9787C5.15087 16 5.52934 16 5.96797 16H6C6.47963 16 6.78926 16.0005 7.02624 16.0167C7.25424 16.0323 7.34107 16.0589 7.38269 16.0761C7.62771 16.1776 7.82239 16.3723 7.92388 16.6173C7.94112 16.6589 7.96774 16.7458 7.98329 16.9738C7.99946 17.2107 8 17.5204 8 18L8 18.032C7.99999 18.4706 7.99998 18.8491 8.02135 19.1624C8.04386 19.4922 8.09336 19.8221 8.22836 20.1481C8.53285 20.8831 9.11687 21.4672 9.85195 21.7716C10.1779 21.9066 10.5078 21.9561 10.8376 21.9787C11.1509 22 11.5294 22 11.968 22H12.032C12.4706 22 12.8491 22 13.1624 21.9787C13.4922 21.9561 13.8221 21.9066 14.1481 21.7716C14.8831 21.4672 15.4672 20.8831 15.7716 20.1481C15.9066 19.8221 15.9561 19.4922 15.9787 19.1624C16 18.8491 16 18.4707 16 18.032V18C16 17.5204 16.0005 17.2107 16.0167 16.9738C16.0323 16.7458 16.0589 16.6589 16.0761 16.6173C16.1776 16.3723 16.3723 16.1776 16.6173 16.0761C16.6589 16.0589 16.7458 16.0323 16.9738 16.0167C17.2107 16.0005 17.5204 16 18 16H18.032C18.4706 16 18.8491 16 19.1624 15.9787C19.4922 15.9561 19.8221 15.9066 20.1481 15.7716C20.8831 15.4672 21.4672 14.8831 21.7716 14.1481C21.9066 13.8221 21.9561 13.4922 21.9787 13.1624C22 12.8491 22 12.4706 22 12.032V11.968C22 11.5294 22 11.1509 21.9787 10.8376C21.9561 10.5078 21.9066 10.1779 21.7716 9.85195C21.4672 9.11687 20.8831 8.53285 20.1481 8.22836C19.8221 8.09336 19.4922 8.04386 19.1624 8.02135C18.8491 7.99998 18.4706 7.99999 18.032 8L18 8C17.5204 8 17.2107 7.99946 16.9738 7.98329C16.7458 7.96774 16.6589 7.94112 16.6173 7.92388C16.3723 7.82239 16.1776 7.62771 16.0761 7.38269C16.0589 7.34107 16.0323 7.25424 16.0167 7.02624C16.0005 6.78926 16 6.47963 16 6V5.96801C16 5.52938 16 5.15087 15.9787 4.83762C15.9561 4.50779 15.9066 4.17788 15.7716 3.85195C15.4672 3.11687 14.8831 2.53285 14.1481 2.22836C13.8221 2.09336 13.4922 2.04386 13.1624 2.02135C12.8491 1.99998 12.4707 1.99999 12.032 2H11.968Z" fill="#3B82F6"/>
</g>
</svg>
