<svg width="24" height="24" viewBox="0 0 24 24" fill="none" xmlns="http://www.w3.org/2000/svg">
<g id="Solid drug container">
<g id="Vector">
<path d="M8 3C7.44772 3 7 3.44772 7 4C7 4.55228 7.44772 5 8 5H16C16.5523 5 17 4.55228 17 4C17 3.44772 16.5523 3 16 3H8Z" fill="#647067"/>
<path fill-rule="evenodd" clip-rule="evenodd" d="M11.9645 6H12.0355C12.9373 5.99999 13.6647 5.99999 14.2567 6.04038C14.8654 6.08191 15.4037 6.16948 15.9134 6.3806C17.1386 6.88807 18.1119 7.86144 18.6194 9.08658C18.8305 9.59628 18.9181 10.1346 18.9596 10.7433C19 11.3353 19 12.0627 19 12.9644V15.0355C19 15.9372 19 16.6647 18.9596 17.2567C18.9181 17.8654 18.8305 18.4037 18.6194 18.9134C18.1119 20.1386 17.1386 21.1119 15.9134 21.6194C15.4037 21.8305 14.8654 21.9181 14.2567 21.9596C13.6647 22 12.9373 22 12.0355 22H11.9645C11.0627 22 10.3353 22 9.74331 21.9596C9.13456 21.9181 8.59628 21.8305 8.08658 21.6194C6.86144 21.1119 5.88807 20.1386 5.3806 18.9134C5.16948 18.4037 5.08191 17.8654 5.04038 17.2567C4.99999 16.6647 4.99999 15.9373 5 15.0355V12.9645C4.99999 12.0627 4.99999 11.3353 5.04038 10.7433C5.08191 10.1346 5.16948 9.59628 5.3806 9.08658C5.88807 7.86144 6.86144 6.88807 8.08658 6.3806C8.59628 6.16948 9.13456 6.08191 9.74331 6.04038C10.3353 5.99999 11.0627 5.99999 11.9645 6ZM10 13C9.44772 13 9 13.4477 9 14C9 14.5523 9.44772 15 10 15H11V16C11 16.5523 11.4477 17 12 17C12.5523 17 13 16.5523 13 16V15H14C14.5523 15 15 14.5523 15 14C15 13.4477 14.5523 13 14 13H13V12C13 11.4477 12.5523 11 12 11C11.4477 11 11 11.4477 11 12V13H10Z" fill="#647067"/>
</g>
</g>
</svg>
