<svg width="32" height="32" viewBox="0 0 32 32" fill="none" xmlns="http://www.w3.org/2000/svg">
<g id="Solid arrow right sm">
<path id="Vector" fill-rule="evenodd" clip-rule="evenodd" d="M9.11712 5.3335C5.55454 5.3335 2.6665 8.22153 2.6665 11.7841V16.8572C2.66649 18.3023 2.66648 19.4678 2.7436 20.4117C2.82299 21.3835 2.99075 22.237 3.39313 23.0268C4.03228 24.2812 5.05215 25.3011 6.30657 25.9402C7.09629 26.3426 7.94987 26.5103 8.92167 26.5897C9.86552 26.6669 11.0311 26.6668 12.4761 26.6668H20.0472C21.2495 26.6668 22.2194 26.6668 23.0088 26.613C23.8204 26.5576 24.5381 26.4409 25.2177 26.1594C26.8512 25.4827 28.1491 24.1849 28.8257 22.5514C29.1072 21.8718 29.224 21.1541 29.2793 20.3424C29.3332 19.5531 29.3332 18.5832 29.3332 17.3809V17.2861C29.3332 16.0838 29.3332 15.1139 29.2793 14.3246C29.224 13.5129 29.1072 12.7952 28.8257 12.1156C28.1491 10.4821 26.8512 9.18426 25.2177 8.50763C24.5381 8.22613 23.8204 8.10938 23.0088 8.054C22.2194 8.00015 21.2495 8.00015 20.0472 8.00016L17.0702 8.00016C16.2512 8.00016 15.9717 7.99701 15.7088 7.95897C15.3111 7.90147 14.9245 7.78439 14.5617 7.61169C14.3219 7.49747 14.0875 7.34505 13.4061 6.89076L12.6953 6.41687C11.6356 5.71046 10.3906 5.3335 9.11712 5.3335ZM15.9998 13.3335C16.7362 13.3335 17.3332 13.9304 17.3332 14.6668V16.0002H18.6665C19.4029 16.0002 19.9998 16.5971 19.9998 17.3335C19.9998 18.0699 19.4029 18.6668 18.6665 18.6668H17.3332V20.0002C17.3332 20.7365 16.7362 21.3335 15.9998 21.3335C15.2635 21.3335 14.6665 20.7365 14.6665 20.0002V18.6668H13.3332C12.5968 18.6668 11.9998 18.0699 11.9998 17.3335C11.9998 16.5971 12.5968 16.0002 13.3332 16.0002H14.6665V14.6668C14.6665 13.9304 15.2635 13.3335 15.9998 13.3335Z" fill="#849087"/>
</g>
</svg>
