<svg width="145" height="48" viewBox="0 0 145 48" fill="none" xmlns="http://www.w3.org/2000/svg">
<g id="Group">
<path id="Vector" d="M62.3597 25.1897C62.3597 32.0313 57.0075 37.0728 50.4391 37.0728C43.8708 37.0728 38.5186 32.0313 38.5186 25.1897C38.5186 18.2999 43.8708 13.3066 50.4391 13.3066C57.0075 13.3066 62.3597 18.2999 62.3597 25.1897ZM57.1415 25.1897C57.1415 20.9144 54.0394 17.9892 50.4391 17.9892C46.8389 17.9892 43.7368 20.9144 43.7368 25.1897C43.7368 29.4222 46.8389 32.3903 50.4391 32.3903C54.0394 32.3903 57.1415 29.4168 57.1415 25.1897Z" fill="#647067"/>
<path id="Vector_2" d="M88.076 25.1897C88.076 32.0313 82.7238 37.0728 76.1555 37.0728C69.5871 37.0728 64.2349 32.0313 64.2349 25.1897C64.2349 18.3053 69.5871 13.3066 76.1555 13.3066C82.7238 13.3066 88.076 18.2999 88.076 25.1897ZM82.8578 25.1897C82.8578 20.9144 79.7557 17.9892 76.1555 17.9892C72.5552 17.9892 69.4531 20.9144 69.4531 25.1897C69.4531 29.4222 72.5552 32.3903 76.1555 32.3903C79.7557 32.3903 82.8578 29.4168 82.8578 25.1897Z" fill="#647067"/>
<path id="Vector_3" d="M112.721 14.0246V35.3584C112.721 44.1341 107.545 47.7183 101.427 47.7183C95.6677 47.7183 92.2013 43.8662 90.8941 40.716L95.4373 38.8247C96.2463 40.7588 98.2286 43.0411 101.422 43.0411C105.338 43.0411 107.765 40.6249 107.765 36.0763V34.3672H107.583C106.415 35.8084 104.165 37.0674 101.325 37.0674C95.3837 37.0674 89.9404 31.892 89.9404 25.2326C89.9404 18.5249 95.3837 13.3066 101.325 13.3066C104.159 13.3066 106.41 14.5657 107.583 15.964H107.765V14.0299H112.721V14.0246ZM108.135 25.2326C108.135 21.0483 105.343 17.9892 101.791 17.9892C98.1911 17.9892 95.1748 21.0483 95.1748 25.2326C95.1748 29.374 98.1911 32.3903 101.791 32.3903C105.343 32.3903 108.135 29.374 108.135 25.2326Z" fill="#647067"/>
<path id="Vector_4" d="M120.891 1.51953V36.3437H115.801V1.51953H120.891Z" fill="#647067"/>
<path id="Vector_5" d="M140.725 29.1004L144.775 31.8006C143.468 33.7347 140.317 37.0671 134.874 37.0671C128.124 37.0671 123.082 31.8488 123.082 25.184C123.082 18.1174 128.166 13.3009 134.29 13.3009C140.457 13.3009 143.473 18.2084 144.459 20.8604L145 22.2105L129.115 28.7896C130.331 31.1737 132.222 32.3899 134.874 32.3899C137.531 32.3899 139.374 31.0827 140.725 29.1004ZM128.257 24.825L138.876 20.4158C138.292 18.9317 136.535 17.8977 134.467 17.8977C131.815 17.8977 128.124 20.239 128.257 24.825Z" fill="#647067"/>
<path id="Vector_6" d="M19.2526 22.0979V17.0565H36.2414C36.4075 17.9351 36.4932 18.9745 36.4932 20.0996C36.4932 23.882 35.4592 28.5592 32.1268 31.8916C28.8855 35.2668 24.7441 37.067 19.2579 37.067C9.08925 37.067 0.538574 28.7842 0.538574 18.6155C0.538574 8.44686 9.08925 0.164062 19.2579 0.164062C24.8834 0.164062 28.8908 2.37138 31.9018 5.24839L28.3444 8.80582C26.1853 6.78066 23.26 5.20553 19.2526 5.20553C11.827 5.20553 6.01937 11.1899 6.01937 18.6155C6.01937 26.0411 11.827 32.0255 19.2526 32.0255C24.069 32.0255 26.8121 30.0914 28.5694 28.3342C29.9945 26.909 30.9321 24.8732 31.3017 22.0926L19.2526 22.0979Z" fill="#647067"/>
</g>
</svg>
