<svg width="32" height="32" viewBox="0 0 32 32" fill="none" xmlns="http://www.w3.org/2000/svg">
<g id="Solid arrow right sm">
<path id="Vector" d="M19.1111 5.48413C19.8054 5.23873 20.1693 4.47697 19.9239 3.78268C19.6785 3.08839 18.9167 2.72449 18.2224 2.96989C16.1528 3.70141 14.6668 5.67515 14.6668 7.9994L14.6667 12.1828C14.6661 13.2433 14.6657 14.0309 14.8485 14.7131C15.3416 16.5536 16.7792 17.9912 18.6197 18.4843C19.0297 18.5942 19.4777 18.6379 20.0001 18.6551V21.3328C20.0001 22.6358 19.9936 23.0926 19.9232 23.4465C19.6076 25.0333 18.3672 26.2737 16.7804 26.5893C16.4265 26.6597 15.9697 26.6661 14.6668 26.6661C13.3638 26.6661 12.907 26.6597 12.5531 26.5893C10.9663 26.2737 9.72591 25.0333 9.41028 23.4465C9.33988 23.0926 9.33342 22.6358 9.33342 21.3328V15.9995C9.33342 15.9615 9.33184 15.924 9.32873 15.8869C10.6936 15.5357 11.7361 14.4037 11.9573 12.9898C12.0007 12.7126 12.0004 12.4069 12.0001 12.0786L12.0001 11.9995L12.0001 11.9204C12.0004 11.592 12.0007 11.2863 11.9573 11.0092C11.7181 9.48055 10.519 8.28142 8.99038 8.04226C8.71322 7.99889 8.40753 7.99915 8.0792 7.99942L8.00009 7.99947L7.92097 7.99942C7.59264 7.99915 7.28696 7.99889 7.0098 8.04226C5.48117 8.28142 4.28204 9.48055 4.04288 11.0092C3.99951 11.2863 3.99977 11.592 4.00004 11.9204L4.00009 11.9995L4.00004 12.0786C3.99977 12.4069 3.99951 12.7126 4.04288 12.9898C4.26409 14.4037 5.30658 15.5357 6.67144 15.8869C6.66834 15.924 6.66675 15.9615 6.66675 15.9995L6.66673 21.4871C6.66646 22.5773 6.66627 23.3203 6.79485 23.9667C7.3209 26.6113 9.38821 28.6787 12.0328 29.2047C12.6792 29.3333 13.4223 29.3331 14.5124 29.3328H14.8211C15.9112 29.3331 16.6543 29.3333 17.3007 29.2047C19.9453 28.6787 22.0126 26.6113 22.5387 23.9667C22.6672 23.3203 22.6671 22.5773 22.6668 21.4871L22.6668 18.6551C23.1892 18.6379 23.6372 18.5942 24.0471 18.4843C25.8876 17.9912 27.3252 16.5536 27.8184 14.7131C28.0012 14.0309 28.0007 13.2434 28.0002 12.1828L28.0001 7.9994C28.0001 5.67515 26.5141 3.70141 24.4444 2.96989C23.7501 2.72449 22.9884 3.08839 22.743 3.78268C22.4976 4.47697 22.8615 5.23873 23.5558 5.48413C24.5933 5.85084 25.3334 6.8404 25.3334 7.9994V11.9994C25.3334 13.3252 25.322 13.7265 25.2426 14.0229C24.996 14.9432 24.2772 15.662 23.3569 15.9085C23.0606 15.9879 22.6592 15.9994 21.3334 15.9994C20.0076 15.9994 19.6063 15.9879 19.3099 15.9085C18.3897 15.662 17.6709 14.9432 17.4243 14.0229C17.3449 13.7265 17.3334 13.3252 17.3334 11.9994V7.9994C17.3334 6.8404 18.0736 5.85084 19.1111 5.48413Z" fill="#84CC16"/>
</g>
</svg>
