<svg width="21" height="20" viewBox="0 0 21 20" fill="none" xmlns="http://www.w3.org/2000/svg">
<g id="Monotone chevron left">
<path id="Vector" d="M9.79397 3.98029C8.26324 2.73682 6.07039 2.73682 4.53966 3.98029C4.37205 4.11645 4.19976 4.28878 3.94673 4.54187L3.5961 4.89249C3.13845 5.34993 2.82656 5.66167 2.60608 5.9847C1.63912 7.40139 1.63912 9.2659 2.60608 10.6826C2.82656 11.0056 3.13845 11.3174 3.5961 11.7748L6.1649 14.3436C6.80351 14.9822 7.3186 15.4973 7.7698 15.8803C8.23436 16.2747 8.68573 16.5778 9.21258 16.749C10.0494 17.0209 10.9509 17.0209 11.7877 16.749C12.3146 16.5778 12.7659 16.2747 13.2305 15.8803C13.6817 15.4973 14.1968 14.9822 14.8354 14.3435L17.4042 11.7748C17.8618 11.3174 18.1737 11.0056 18.3942 10.6826C19.3612 9.2659 19.3612 7.40139 18.3942 5.9847C18.1737 5.66167 17.8618 5.34992 17.4042 4.89247L17.0536 4.54191C16.8006 4.2888 16.6283 4.11646 16.4606 3.98029C14.9299 2.73682 12.7371 2.73682 11.2063 3.98029C11.0387 4.11645 10.8664 4.28878 10.6134 4.54188L10.5776 4.57772C10.5395 4.61576 10.5187 4.63653 10.5032 4.65148L10.5001 4.65442L10.4971 4.65148C10.4816 4.63653 10.4608 4.61576 10.4227 4.57772L10.3869 4.54188C10.1339 4.28879 9.96159 4.11645 9.79397 3.98029Z" fill="#A3E635"/>
</g>
</svg>
