<svg width="24" height="24" viewBox="0 0 24 24" fill="none" xmlns="http://www.w3.org/2000/svg">
<g id="Solid verified">
<path id="Vector" fill-rule="evenodd" clip-rule="evenodd" d="M10.1445 2.65684C9.89123 2.88297 9.76461 2.99604 9.62677 3.08361C9.34187 3.2646 9.01581 3.37055 8.67894 3.39158C8.51595 3.40175 8.34706 3.38471 8.00927 3.35062C7.35262 3.28434 7.02429 3.2512 6.74091 3.30446C6.15135 3.41527 5.64267 3.78485 5.35511 4.3113C5.21689 4.56436 5.14694 4.88685 5.00706 5.53184C4.9351 5.86364 4.89912 6.02953 4.83908 6.1814C4.71498 6.49528 4.51346 6.77265 4.25329 6.98767C4.12741 7.09171 3.98075 7.17719 3.68743 7.34816C3.11723 7.68051 2.83213 7.84669 2.63418 8.05634C2.22235 8.49251 2.02805 9.09051 2.10485 9.68544C2.14177 9.97141 2.27474 10.2734 2.54069 10.8775C2.6775 11.1882 2.7459 11.3435 2.78659 11.5017C2.87068 11.8286 2.87068 12.1714 2.78659 12.4983C2.7459 12.6565 2.6775 12.8118 2.54069 13.1225C2.27474 13.7266 2.14177 14.0286 2.10485 14.3146C2.02805 14.9095 2.22235 15.5075 2.63418 15.9437C2.83213 16.1533 3.11723 16.3195 3.68743 16.6519C3.98075 16.8228 4.12741 16.9083 4.25329 17.0123C4.51346 17.2274 4.71498 17.5047 4.83908 17.8186C4.89912 17.9705 4.9351 18.1364 5.00706 18.4682C5.14694 19.1132 5.21689 19.4357 5.35511 19.6887C5.64267 20.2152 6.15135 20.5847 6.7409 20.6955C7.02428 20.7488 7.3526 20.7157 8.00924 20.6494C8.34703 20.6153 8.51595 20.5983 8.67894 20.6084C9.01581 20.6295 9.34187 20.7354 9.62677 20.9164C9.76461 21.004 9.89123 21.117 10.1445 21.3432C10.6368 21.7828 10.8829 22.0025 11.1435 22.126C11.6855 22.3829 12.3143 22.3829 12.8564 22.126C13.117 22.0025 13.3631 21.7828 13.8554 21.3432C14.1086 21.117 14.2353 21.004 14.3731 20.9164C14.658 20.7354 14.9841 20.6295 15.3209 20.6084C15.4839 20.5983 15.6528 20.6153 15.9906 20.6494C16.6472 20.7157 16.9756 20.7488 17.259 20.6955C17.8485 20.5847 18.3572 20.2152 18.6448 19.6887C18.783 19.4357 18.8529 19.1132 18.9928 18.4682C19.0648 18.1364 19.1007 17.9705 19.1608 17.8186C19.2849 17.5047 19.4864 17.2274 19.7466 17.0123C19.8725 16.9083 20.0191 16.8228 20.3124 16.6519C20.8826 16.3195 21.1677 16.1533 21.3657 15.9437C21.7775 15.5075 21.9718 14.9095 21.895 14.3146C21.8581 14.0286 21.7251 13.7266 21.4592 13.1226C21.3224 12.8118 21.254 12.6565 21.2133 12.4983C21.1292 12.1714 21.1292 11.8286 21.2133 11.5017C21.254 11.3435 21.3224 11.1882 21.4592 10.8775C21.7251 10.2734 21.8581 9.97141 21.895 9.68544C21.9718 9.09051 21.7775 8.49251 21.3657 8.05634C21.1677 7.84669 20.8826 7.68051 20.3124 7.34816C20.0191 7.1772 19.8725 7.09171 19.7466 6.98767C19.4864 6.77265 19.2849 6.49528 19.1608 6.1814C19.1007 6.02955 19.0648 5.86366 18.9928 5.53192C18.8529 4.88692 18.783 4.56435 18.6448 4.3113C18.3572 3.78485 17.8485 3.41527 17.259 3.30446C16.9756 3.2512 16.6473 3.28434 15.9906 3.35062C15.6528 3.38471 15.4839 3.40175 15.3209 3.39158C14.9841 3.37055 14.658 3.2646 14.3731 3.08361C14.2353 2.99604 14.1086 2.88298 13.8554 2.65684C13.3631 2.21726 13.117 1.99746 12.8564 1.87399C12.3143 1.6171 11.6855 1.6171 11.1435 1.87399C10.8829 1.99746 10.6368 2.21726 10.1445 2.65684ZM17.207 10.2071C17.5976 9.81659 17.5976 9.18342 17.207 8.7929C16.8165 8.40237 16.1833 8.40237 15.7928 8.7929L11.5556 13.0302C11.1479 13.4378 10.8841 13.7005 10.6674 13.8845C10.4596 14.0609 10.3617 14.1055 10.3089 14.1226C10.1081 14.1879 9.89176 14.1879 9.69092 14.1226C9.63814 14.1055 9.54028 14.0609 9.33249 13.8845C9.11577 13.7005 8.85198 13.4378 8.4443 13.0302L7.70704 12.2929C7.31651 11.9024 6.68335 11.9024 6.29283 12.2929C5.9023 12.6834 5.9023 13.3166 6.29283 13.7071L7.05734 14.4716C7.43007 14.8444 7.75164 15.166 8.03813 15.4092C8.34052 15.6659 8.669 15.8935 9.07288 16.0247C9.67541 16.2205 10.3245 16.2205 10.927 16.0247C11.3309 15.8935 11.6593 15.6659 11.9617 15.4092C12.2482 15.166 12.5697 14.8444 12.9424 14.4717L17.207 10.2071Z" fill="#84CC16"/>
</g>
</svg>
