<svg width="24" height="24" viewBox="0 0 24 24" fill="none" xmlns="http://www.w3.org/2000/svg">
<g id="Solid arrow right sm">
<path id="Vector" fill-rule="evenodd" clip-rule="evenodd" d="M11.8625 2.00005H12.1377C12.9331 1.99962 13.5237 1.9993 14.0354 2.13639C15.4157 2.50626 16.4939 3.58445 16.8638 4.96482C17.0009 5.47647 17.0006 6.06713 17.0001 6.8625L17.0001 7.0001L17.1377 7.00005C17.9331 6.99962 18.5237 6.9993 19.0354 7.13639C20.4157 7.50626 21.4939 8.58445 21.8638 9.96482C22.0009 10.4765 22.0006 11.0671 22.0001 11.8625V12.1377C22.0006 12.9331 22.0009 13.5237 21.8638 14.0354C21.4939 15.4157 20.4157 16.4939 19.0354 16.8638C18.5237 17.0009 17.9331 17.0006 17.1377 17.0001L17.01 17.0001C17.0192 17.2577 17.0364 17.399 17.0683 17.5178C17.2532 18.2079 17.7923 18.747 18.4825 18.932C18.7048 18.9915 19.0058 19.0001 20.0001 19.0001C20.5524 19.0001 21.0001 19.4478 21.0001 20.0001C21.0001 20.5524 20.5524 21.0001 20.0001 21.0001L19.8625 21.0002C19.0672 21.0006 18.4765 21.0009 17.9648 20.8638C16.5845 20.494 15.5063 19.4158 15.1364 18.0354C15.054 17.7279 15.0213 17.3919 15.0083 17.0001H13.0001V21.0001C13.0001 21.5524 12.5524 22.0001 12.0001 22.0001C11.4478 22.0001 11.0001 21.5524 11.0001 21.0001V17.0001H8.99191C8.97897 17.3919 8.94621 17.7279 8.86383 18.0354C8.49396 19.4158 7.41577 20.494 6.0354 20.8638C5.52375 21.0009 4.93309 21.0006 4.1377 21.0002L4.00012 21.0001C3.44784 21.0001 3.00012 20.5524 3.00012 20.0001C3.00012 19.4478 3.44784 19.0001 4.00012 19.0001C4.99448 19.0001 5.29548 18.9915 5.51776 18.932C6.20794 18.747 6.74704 18.2079 6.93197 17.5178C6.9638 17.399 6.98108 17.2577 6.99026 17.0001L6.86252 17.0001C6.06714 17.0006 5.47647 17.0009 4.96482 16.8638C3.58445 16.4939 2.50626 15.4157 2.13639 14.0354C1.9993 13.5237 1.99962 12.9331 2.00005 12.1377V11.8625C1.99962 11.0671 1.9993 10.4765 2.13639 9.96482C2.50626 8.58445 3.58445 7.50626 4.96482 7.13639C5.47647 6.9993 6.06713 6.99962 6.86251 7.00005L7.0001 7.0001L7.00005 6.86251C6.99962 6.06713 6.9993 5.47647 7.13639 4.96482C7.50626 3.58445 8.58445 2.50626 9.96482 2.13639C10.4765 1.9993 11.0671 1.99962 11.8625 2.00005ZM9.00012 11.0001C9.00012 10.4478 9.44784 10.0001 10.0001 10.0001H11.0001V9.00012C11.0001 8.44784 11.4478 8.00012 12.0001 8.00012C12.5524 8.00012 13.0001 8.44784 13.0001 9.00012V10.0001H14.0001C14.5524 10.0001 15.0001 10.4478 15.0001 11.0001C15.0001 11.5524 14.5524 12.0001 14.0001 12.0001H13.0001V13.0001C13.0001 13.5524 12.5524 14.0001 12.0001 14.0001C11.4478 14.0001 11.0001 13.5524 11.0001 13.0001V12.0001H10.0001C9.44784 12.0001 9.00012 11.5524 9.00012 11.0001Z" fill="#84CC16"/>
</g>
</svg>
