<svg width="24" height="24" viewBox="0 0 24 24" fill="none" xmlns="http://www.w3.org/2000/svg">
<g id="Solid heartbeat">
<g id="Vector">
<path d="M4.8473 4.77586C6.68417 3.2837 9.3156 3.2837 11.1525 4.77586C11.3536 4.93926 11.5604 5.14606 11.864 5.44977L11.907 5.49278C11.9526 5.53843 11.9776 5.56335 11.9962 5.58129L11.9999 5.58482L12.0036 5.58129C12.0222 5.56335 12.0471 5.53843 12.0928 5.49278L12.1358 5.44976C12.4394 5.14605 12.6462 4.93925 12.8473 4.77586C14.6842 3.2837 17.3156 3.2837 19.1525 4.77586C19.3536 4.93926 19.5604 5.14607 19.864 5.4498L20.2847 5.87048C20.8339 6.41941 21.2082 6.79352 21.4728 7.18115C22.2561 8.32876 22.5106 9.72125 22.2364 11.028C22.1605 11.0096 22.0813 10.9999 21.9999 10.9999H16.5688C15.5673 10.9999 15.2749 10.9897 15.0243 10.9136C14.7727 10.8372 14.5386 10.7119 14.3355 10.545C14.1332 10.3787 13.9625 10.141 13.407 9.30774L12.8319 8.44518C12.5875 8.07852 12.1319 7.91509 11.7101 8.04279C11.2883 8.17048 10.9999 8.55921 10.9999 8.99988V11.9653C10.9782 11.9465 10.9563 11.9279 10.9342 11.9097C10.5279 11.5758 10.0598 11.3253 9.55667 11.1725C8.98534 10.999 8.37354 10.9993 7.56287 10.9998L1.99988 10.9999C1.91841 10.9999 1.83922 11.0096 1.76341 11.028C1.48917 9.72125 1.7437 8.32876 2.527 7.18115C2.79157 6.79352 3.16585 6.41943 3.71502 5.87051L4.13579 5.44976C4.43941 5.14606 4.64617 4.93925 4.8473 4.77586Z" fill="#647067"/>
<path d="M2.65917 12.9999C2.91269 13.3273 3.25158 13.666 3.71503 14.1293L6.79759 17.2118C7.56391 17.9781 8.18203 18.5963 8.72346 19.0559C9.28095 19.5292 9.82259 19.8929 10.4548 20.0983C11.459 20.4246 12.5408 20.4246 13.545 20.0983C14.1772 19.8929 14.7188 19.5292 15.2763 19.0559C15.8178 18.5963 16.4359 17.9781 17.2022 17.2117L20.2847 14.1293C20.7482 13.6661 21.0871 13.3273 21.3406 12.9999L16.4369 12.9999C15.6262 13.0004 15.0144 13.0008 14.4431 12.8273C13.9399 12.6745 13.4718 12.424 13.0656 12.0901C13.0434 12.0718 13.0215 12.0533 12.9999 12.0345V14.9999C12.9999 15.4405 12.7114 15.8293 12.2897 15.957C11.8679 16.0847 11.4123 15.9212 11.1678 15.5546L10.5928 14.692C10.0373 13.8587 9.8666 13.6211 9.66424 13.4548C9.46112 13.2878 9.22708 13.1626 8.9755 13.0862C8.72486 13.0101 8.43247 12.9999 7.431 12.9999H2.65917Z" fill="#647067"/>
</g>
</g>
</svg>
