<svg width="129" height="104" viewBox="0 0 129 104" fill="none" xmlns="http://www.w3.org/2000/svg">
<g id="Frame">
<path id="Vector" d="M2.5 102C14.5976 102 18.0854 44.7857 33.4273 44.7857C49.119 44.7857 45.3633 87.2143 61.4756 87.2143C79.1179 87.2143 76.3226 12 93.2317 12C110.141 12 111.094 53.7857 126.5 53.7857" stroke="#A3E635" stroke-width="4" stroke-linecap="round"/>
<path id="Vector_2" d="M2.5 102C7.5 82.7692 16.5 69.3077 31.8014 69.3077C50.1183 69.3077 46.9935 19.3077 57.9935 19.3077C68.9935 19.3077 67.4175 52.641 77.0068 52.641C86.5962 52.641 88.8837 2 100.788 2C112.692 2 117.903 53.7508 126.5 53.7508" stroke="#ECFCCB" stroke-width="4" stroke-linecap="round"/>
</g>
</svg>
