<svg width="33" height="32" viewBox="0 0 33 32" fill="none" xmlns="http://www.w3.org/2000/svg">
<g id="Social Media">
<path id="Vector" fill-rule="evenodd" clip-rule="evenodd" d="M16.5 4C13.2408 4 12.8328 4.0136 11.5528 4.072C10.2752 4.1304 9.4024 4.3336 8.6392 4.6304C7.8392 4.9312 7.1136 5.4032 6.5136 6.0144C5.90338 6.61371 5.43109 7.3388 5.1296 8.1392C4.8344 8.9024 4.6304 9.776 4.572 11.0536C4.5144 12.3328 4.5 12.74 4.5 16C4.5 19.26 4.5136 19.6672 4.572 20.9472C4.6304 22.2248 4.8336 23.0976 5.1304 23.8608C5.4312 24.6608 5.9032 25.3864 6.5144 25.9864C7.11372 26.5966 7.83881 27.0689 8.6392 27.3704C9.4024 27.6664 10.2752 27.8696 11.5528 27.928C12.8328 27.9864 13.2408 28 16.5 28C19.7592 28 20.1672 27.9864 21.4472 27.928C22.7248 27.8696 23.5976 27.6664 24.3608 27.3696C25.1608 27.0688 25.8864 26.5968 26.4864 25.9856C27.0966 25.3863 27.5689 24.6612 27.8704 23.8608C28.1664 23.0976 28.3696 22.2248 28.428 20.9472C28.4864 19.6672 28.5 19.2592 28.5 16C28.5 12.7408 28.4864 12.3328 28.428 11.0528C28.3696 9.7752 28.1664 8.9024 27.8696 8.1392C27.5683 7.33845 27.096 6.61306 26.4856 6.0136C25.8863 5.40338 25.1612 4.93109 24.3608 4.6296C23.5976 4.3344 22.724 4.1304 21.4464 4.072C20.1672 4.0144 19.76 4 16.5 4ZM16.5 6.1624C19.704 6.1624 20.084 6.1744 21.3496 6.232C22.5192 6.2856 23.1544 6.48 23.5776 6.6456C24.1376 6.8624 24.5376 7.1232 24.9576 7.5424C25.3776 7.9624 25.6376 8.3624 25.8544 8.9224C26.0192 9.3456 26.2144 9.9808 26.268 11.1504C26.3256 12.416 26.3376 12.796 26.3376 16C26.3376 19.204 26.3256 19.584 26.268 20.8496C26.2144 22.0192 26.02 22.6544 25.8544 23.0776C25.6623 23.5988 25.3559 24.0704 24.9576 24.4576C24.5705 24.856 24.0989 25.1624 23.5776 25.3544C23.1544 25.5192 22.5192 25.7144 21.3496 25.768C20.084 25.8256 19.7048 25.8376 16.5 25.8376C13.2952 25.8376 12.916 25.8256 11.6504 25.768C10.4808 25.7144 9.8456 25.52 9.4224 25.3544C8.90116 25.1623 8.42961 24.8559 8.0424 24.4576C7.64414 24.0704 7.3377 23.5988 7.1456 23.0776C6.9808 22.6544 6.7856 22.0192 6.732 20.8496C6.6744 19.584 6.6624 19.204 6.6624 16C6.6624 12.796 6.6744 12.416 6.732 11.1504C6.7856 9.9808 6.98 9.3456 7.1456 8.9224C7.3624 8.3624 7.6232 7.9624 8.0424 7.5424C8.42955 7.14404 8.90113 6.83758 9.4224 6.6456C9.8456 6.4808 10.4808 6.2856 11.6504 6.232C12.916 6.1744 13.296 6.1624 16.5 6.1624Z" fill="white"/>
<path id="Vector_2" fill-rule="evenodd" clip-rule="evenodd" d="M16.5 20.0037C15.9742 20.0037 15.4536 19.9002 14.9678 19.6989C14.482 19.4977 14.0406 19.2028 13.6688 18.831C13.297 18.4592 13.002 18.0178 12.8008 17.532C12.5996 17.0462 12.496 16.5255 12.496 15.9997C12.496 15.4739 12.5996 14.9532 12.8008 14.4675C13.002 13.9817 13.297 13.5403 13.6688 13.1685C14.0406 12.7967 14.482 12.5017 14.9678 12.3005C15.4536 12.0993 15.9742 11.9957 16.5 11.9957C17.562 11.9957 18.5804 12.4176 19.3313 13.1685C20.0822 13.9194 20.504 14.9378 20.504 15.9997C20.504 17.0616 20.0822 18.0801 19.3313 18.831C18.5804 19.5819 17.562 20.0037 16.5 20.0037ZM16.5 9.83172C14.8642 9.83172 13.2953 10.4816 12.1386 11.6383C10.9819 12.795 10.332 14.3639 10.332 15.9997C10.332 17.6356 10.9819 19.2044 12.1386 20.3612C13.2953 21.5179 14.8642 22.1677 16.5 22.1677C18.1359 22.1677 19.7047 21.5179 20.8615 20.3612C22.0182 19.2044 22.668 17.6356 22.668 15.9997C22.668 14.3639 22.0182 12.795 20.8615 11.6383C19.7047 10.4816 18.1359 9.83172 16.5 9.83172ZM24.4624 9.71972C24.4624 10.1064 24.3088 10.4773 24.0354 10.7507C23.762 11.0241 23.3911 11.1777 23.0044 11.1777C22.6177 11.1777 22.2469 11.0241 21.9735 10.7507C21.7 10.4773 21.5464 10.1064 21.5464 9.71972C21.5464 9.33303 21.7 8.96219 21.9735 8.68876C22.2469 8.41533 22.6177 8.26172 23.0044 8.26172C23.3911 8.26172 23.762 8.41533 24.0354 8.68876C24.3088 8.96219 24.4624 9.33303 24.4624 9.71972Z" fill="white"/>
</g>
</svg>
