<svg width="20" height="20" viewBox="0 0 20 20" fill="none" xmlns="http://www.w3.org/2000/svg">
<g id="Solid location">
<path id="Vector" fill-rule="evenodd" clip-rule="evenodd" d="M9.22763 17.5206C9.72974 17.6838 10.2706 17.6838 10.7727 17.5206C11.1093 17.4113 11.383 17.2216 11.635 17.0077C11.8738 16.805 12.1417 16.537 12.4524 16.2263L14.7194 13.9593C14.9549 13.7238 15.1027 13.576 15.2371 13.4213C16.0671 12.466 16.5639 11.2666 16.6525 10.0042C16.6669 9.79982 16.6669 9.58506 16.6668 9.24206L16.6668 9.13171C16.6669 8.40293 16.6669 7.95175 16.6169 7.57194C16.2723 4.95433 14.2125 2.89453 11.5949 2.54991C11.2151 2.49991 10.7776 2.49995 10.0731 2.5H9.92728C9.22277 2.49995 8.78522 2.49991 8.40543 2.54991C5.78782 2.89453 3.72802 4.95433 3.38341 7.57194C3.33341 7.95175 3.33344 8.40293 3.3335 9.13172L3.3335 9.24195C3.33349 9.58502 3.33348 9.7998 3.34783 10.0042C3.43647 11.2666 3.93327 12.466 4.76326 13.4213C4.89763 13.576 5.04543 13.7238 5.28093 13.9593L7.54803 16.2264C7.85859 16.537 8.12662 16.805 8.36534 17.0077C8.61733 17.2216 8.89106 17.4113 9.22763 17.5206ZM11.6668 9.16667C11.6668 9.42214 11.6668 9.54988 11.6501 9.65679C11.5566 10.2544 11.0879 10.7231 10.4903 10.8166C10.3834 10.8333 10.2556 10.8333 10.0002 10.8333C9.7447 10.8333 9.61697 10.8333 9.51006 10.8166C8.91249 10.7231 8.44373 10.2544 8.35024 9.65679C8.33351 9.54988 8.33351 9.42214 8.33351 9.16667C8.33351 8.91119 8.33351 8.78346 8.35024 8.67655C8.44373 8.07898 8.91249 7.61022 9.51006 7.51673C9.61697 7.5 9.7447 7.5 10.0002 7.5C10.2556 7.5 10.3834 7.5 10.4903 7.51673C11.0879 7.61022 11.5566 8.07898 11.6501 8.67655C11.6668 8.78346 11.6668 8.91119 11.6668 9.16667Z" fill="#A2A9A4"/>
</g>
</svg>
