<svg width="20" height="20" viewBox="0 0 20 20" fill="none" xmlns="http://www.w3.org/2000/svg">
<g id="Solid anatomy lung">
<g id="Vector">
<path d="M10.8332 1.66668C10.8332 1.20644 10.4601 0.833344 9.99991 0.833344C9.53967 0.833344 9.16658 1.20644 9.16658 1.66668V6.66031C9.17 6.203 9.54178 5.83334 9.99989 5.83334C10.4601 5.83334 10.8332 6.20644 10.8332 6.66668C10.8332 7.58715 11.5794 8.33334 12.4999 8.33334C14.3408 8.33334 15.8332 9.82573 15.8332 11.6667V12.0833C15.8332 12.5436 15.4601 12.9167 14.9999 12.9167C14.5397 12.9167 14.1666 12.5436 14.1666 12.0833V11.6667C14.1666 10.7462 13.4204 10 12.4999 10C11.8928 10 11.3235 9.83769 10.8332 9.55408L10.8332 13.8073C10.8331 14.1385 10.8331 14.3839 10.8618 14.6018C11.0587 16.0975 12.2357 17.2746 13.7315 17.4715C13.9494 17.5002 14.1947 17.5001 14.5259 17.5H14.6405C14.9717 17.5001 15.2171 17.5002 15.435 17.4715C16.9308 17.2746 18.1078 16.0975 18.3047 14.6018C18.3334 14.3839 18.3333 14.1385 18.3333 13.8073L18.3333 9.07196C18.3335 8.54281 18.3337 8.14297 18.2411 7.75739C18.1595 7.41727 18.0248 7.09212 17.842 6.79388C17.6349 6.45578 17.352 6.17319 16.9776 5.7992L16.2795 5.10111C15.6812 4.5028 14.8697 4.16668 14.0236 4.16668C12.3975 4.16668 11.0556 5.38321 10.8582 6.9558C10.8418 6.86189 10.8332 6.76529 10.8332 6.66668L10.8332 1.66668Z" fill="#A2A9A4"/>
<path d="M9.9999 8.87154C9.9999 8.87154 9.9999 8.87155 9.9999 8.87154C9.38911 9.56356 8.49547 10 7.49989 10C6.57941 10 5.83322 10.7462 5.83322 11.6667V12.0833C5.83322 12.5436 5.46013 12.9167 4.99989 12.9167C4.53965 12.9167 4.16655 12.5436 4.16655 12.0833V11.6667C4.16655 9.82573 5.65894 8.33334 7.49989 8.33334C8.38972 8.33334 9.11669 7.636 9.1641 6.75799C9.10282 5.3165 7.91481 4.16668 6.45825 4.16668C5.87224 4.16668 5.30205 4.35674 4.83325 4.70834L3.5178 5.69488C3.01082 6.07467 2.62804 6.36142 2.3445 6.73509C2.09466 7.06435 1.90823 7.4372 1.79473 7.83463C1.66591 8.28567 1.66618 8.76393 1.66654 9.39739L1.66657 13.8073C1.66648 14.1385 1.66641 14.3839 1.6951 14.6018C1.89202 16.0975 3.06905 17.2746 4.56482 17.4715C4.78271 17.5002 5.02808 17.5001 5.35928 17.5H5.47387C5.80508 17.5001 6.05045 17.5002 6.26833 17.4715C7.76411 17.2746 8.94114 16.0975 9.13806 14.6018C9.16675 14.3839 9.16668 14.1385 9.16659 13.8074L9.16658 9.55407C9.48025 9.37262 9.7616 9.14153 9.9999 8.87154Z" fill="#A2A9A4"/>
</g>
</g>
</svg>
