<svg width="24" height="24" viewBox="0 0 24 24" fill="none" xmlns="http://www.w3.org/2000/svg">
<g id="Solid arrow right sm">
<g id="Vector">
<path d="M5 8C5 7.5355 5 7.30325 5.03078 7.10891C5.20021 6.03918 6.03918 5.20021 7.10891 5.03078C7.30325 5 7.5355 5 8 5C8.4645 5 8.69675 5 8.89109 5.03078C9.96082 5.20021 10.7998 6.03918 10.9692 7.10891C11 7.30325 11 7.5355 11 8C11 8.4645 11 8.69675 10.9692 8.89109C10.7998 9.96082 9.96082 10.7998 8.89109 10.9692C8.69675 11 8.4645 11 8 11C7.5355 11 7.30325 11 7.10891 10.9692C6.03918 10.7998 5.20021 9.96082 5.03078 8.89109C5 8.69675 5 8.4645 5 8Z" fill="#2F3C33"/>
<path d="M13 8C13 7.5355 13 7.30325 13.0308 7.10891C13.2002 6.03918 14.0392 5.20021 15.1089 5.03078C15.3032 5 15.5355 5 16 5C16.4645 5 16.6968 5 16.8911 5.03078C17.9608 5.20021 18.7998 6.03918 18.9692 7.10891C19 7.30325 19 7.5355 19 8C19 8.4645 19 8.69675 18.9692 8.89109C18.7998 9.96082 17.9608 10.7998 16.8911 10.9692C16.6968 11 16.4645 11 16 11C15.5355 11 15.3032 11 15.1089 10.9692C14.0392 10.7998 13.2002 9.96082 13.0308 8.89109C13 8.69675 13 8.4645 13 8Z" fill="#2F3C33"/>
<path d="M5 16C5 15.5355 5 15.3032 5.03078 15.1089C5.20021 14.0392 6.03918 13.2002 7.10891 13.0308C7.30325 13 7.5355 13 8 13C8.4645 13 8.69675 13 8.89109 13.0308C9.96082 13.2002 10.7998 14.0392 10.9692 15.1089C11 15.3032 11 15.5355 11 16C11 16.4645 11 16.6968 10.9692 16.8911C10.7998 17.9608 9.96082 18.7998 8.89109 18.9692C8.69675 19 8.4645 19 8 19C7.5355 19 7.30325 19 7.10891 18.9692C6.03918 18.7998 5.20021 17.9608 5.03078 16.8911C5 16.6968 5 16.4645 5 16Z" fill="#2F3C33"/>
<path d="M13 16C13 15.5355 13 15.3032 13.0308 15.1089C13.2002 14.0392 14.0392 13.2002 15.1089 13.0308C15.3032 13 15.5355 13 16 13C16.4645 13 16.6968 13 16.8911 13.0308C17.9608 13.2002 18.7998 14.0392 18.9692 15.1089C19 15.3032 19 15.5355 19 16C19 16.4645 19 16.6968 18.9692 16.8911C18.7998 17.9608 17.9608 18.7998 16.8911 18.9692C16.6968 19 16.4645 19 16 19C15.5355 19 15.3032 19 15.1089 18.9692C14.0392 18.7998 13.2002 17.9608 13.0308 16.8911C13 16.6968 13 16.4645 13 16Z" fill="#2F3C33"/>
</g>
</g>
</svg>
