<svg width="150" height="32" viewBox="0 0 150 32" fill="none" xmlns="http://www.w3.org/2000/svg">
<g id="Group">
<path id="Vector" d="M5.75381 20.7819C5.75381 22.5092 6.13293 23.8354 6.62847 24.6376C7.27817 25.6885 8.24722 26.1337 9.23514 26.1337C10.5094 26.1337 11.6751 25.8175 13.9215 22.7106C15.7211 20.2203 17.8417 16.7248 19.2686 14.5334L21.6849 10.8209C23.3634 8.24251 25.3062 5.37627 27.5338 3.43346C29.3523 1.84775 31.314 0.966797 33.2883 0.966797C36.6028 0.966797 39.7601 2.88759 42.1764 6.49005C44.8209 10.4355 46.1045 15.405 46.1045 20.5334C46.1045 23.5821 45.5036 25.8222 44.4811 27.592C43.4931 29.3035 41.5676 31.0135 38.3286 31.0135V26.1337C41.102 26.1337 41.7942 23.5852 41.7942 20.6686C41.7942 16.5124 40.8251 11.9 38.6904 8.60433C37.1755 6.26666 35.2122 4.83826 33.0523 4.83826C30.7162 4.83826 28.8363 6.60017 26.7236 9.7417C25.6004 11.4108 24.4473 13.4448 23.1526 15.74L21.7274 18.2649C18.8643 23.3414 18.139 24.4976 16.7075 26.4058C14.1984 29.7472 12.0558 31.0135 9.23514 31.0135C5.8891 31.0135 3.77324 29.5647 2.46283 27.3812C1.3931 25.602 0.867676 23.2675 0.867676 20.6073L5.75381 20.7819Z" fill="#647067"/>
<path id="Vector_2" d="M4.72021 6.83456C6.96035 3.38155 10.1931 0.966797 13.901 0.966797C16.0483 0.966797 18.183 1.60234 20.4122 3.42245C22.8505 5.41246 25.4493 8.68928 28.6915 14.0898L29.8541 16.0279C32.6605 20.7033 34.2573 23.1086 35.1917 24.2428C36.3936 25.6995 37.2352 26.1337 38.3285 26.1337C41.1019 26.1337 41.7941 23.5852 41.7941 20.6686L46.1045 20.5334C46.1045 23.5821 45.5035 25.8222 44.481 27.592C43.4931 29.3035 41.5676 31.0135 38.3285 31.0135C36.3149 31.0135 34.531 30.5762 32.5583 28.7152C31.0418 27.2868 29.2689 24.7493 27.905 22.4683L23.8479 15.6913C21.8122 12.2902 19.9449 9.75429 18.8642 8.60591C17.7017 7.371 16.2072 5.87967 13.8223 5.87967C11.8921 5.87967 10.2529 7.23414 8.88114 9.30595L4.72021 6.83456Z" fill="#647067"/>
<path id="Vector_3" d="M13.8224 5.87967C11.8922 5.87967 10.253 7.23414 8.88119 9.30595C6.94152 12.2335 5.75381 16.5942 5.75381 20.7819C5.75381 22.5092 6.13293 23.8354 6.62847 24.6376L2.46283 27.3812C1.3931 25.602 0.867676 23.2675 0.867676 20.6073C0.867676 15.7699 2.1954 10.7281 4.72027 6.83456C6.9604 3.38155 10.1932 0.966797 13.901 0.966797L13.8224 5.87967Z" fill="#647067"/>
<path id="Vector_4" d="M55.603 1.91602H61.2553L70.8655 19.3022L80.4773 1.91602H86.0069V30.484H81.396V8.58922L72.9672 23.751H68.6411L60.2139 8.58922V30.484H55.603V1.91602ZM100.454 12.5677C97.1478 12.5677 95.1562 15.0563 94.6795 18.1381H105.902C105.671 14.9635 103.84 12.5677 100.454 12.5677ZM90.108 19.8937C90.108 13.4093 94.2988 8.6899 100.535 8.6899C106.668 8.6899 110.331 13.3495 110.331 20.2398V21.5062H94.6795C95.2348 24.8585 97.4592 27.1175 101.046 27.1175C103.907 27.1175 105.696 26.2444 107.392 24.6477L109.841 27.6477C107.534 29.7698 104.598 30.9937 100.882 30.9937C94.1321 30.9937 90.108 26.0714 90.108 19.8937ZM115.921 12.9767H111.677V9.20117H115.921V2.95743H120.37V9.20117H126.819V12.9767H120.37V22.546C120.37 25.8134 121.415 26.9744 123.982 26.9744C125.154 26.9744 125.826 26.8737 126.819 26.7085V30.4431C125.582 30.7923 124.402 30.9528 123.125 30.9528C118.322 30.9528 115.921 28.3288 115.921 23.0762V12.9767ZM145.551 16.6484C144.658 14.3925 142.665 12.7313 139.735 12.7313C135.929 12.7313 133.492 15.4323 133.492 19.8324C133.492 24.1223 135.735 26.9539 139.553 26.9539C142.555 26.9539 144.697 25.2077 145.551 23.0353V16.6484ZM150 30.484H145.633V27.5045C144.412 29.2585 142.191 30.9937 138.593 30.9937C132.807 30.9937 128.941 26.15 128.941 19.8324C128.941 13.4549 132.9 8.6899 138.839 8.6899C141.774 8.6899 144.077 9.86346 145.633 11.9353V9.20117H150V30.484Z" fill="#647067"/>
</g>
</svg>
