<svg width="149" height="32" viewBox="0 0 149 32" fill="none" xmlns="http://www.w3.org/2000/svg">
<g id="Group">
<path id="Vector" d="M52.5756 18.3229L51.6879 20.8382H51.6139C51.4659 20.271 51.1947 19.4079 50.7508 18.3722L45.9913 6.41198H41.3306V25.4743H44.4131V13.7114C44.4131 12.9716 44.4131 12.1332 44.3884 11.0974C44.3638 10.5796 44.3145 10.185 44.2898 9.88908H44.3638C44.5117 10.6289 44.6844 11.1714 44.8077 11.5167L50.5288 25.425H52.6989L58.3708 11.3933C58.4941 11.0728 58.6174 10.4316 58.7407 9.88908H58.8147C58.7407 11.2947 58.6914 12.5524 58.6667 13.3168V25.4004H61.9465V6.36266H57.4584L52.5756 18.3229ZM65.0537 11.7386H68.2595V25.4004H65.0537V11.7386ZM66.6813 5.9681C66.1387 5.9681 65.6949 6.16538 65.325 6.51063C64.9551 6.85587 64.7578 7.29975 64.7578 7.84228C64.7578 8.36014 64.9551 8.80403 65.325 9.14927C65.6949 9.49451 66.1387 9.66713 66.6813 9.66713C67.2238 9.66713 67.6923 9.46985 68.0376 9.14927C68.4075 8.80403 68.6048 8.36014 68.6048 7.84228C68.6048 7.32441 68.4075 6.88053 68.0376 6.51063C67.717 6.16538 67.2485 5.9681 66.6813 5.9681ZM79.6279 11.6153C79.036 11.492 78.4195 11.418 77.8277 11.418C76.3727 11.418 75.0411 11.7386 73.9314 12.3798C72.8217 13.0209 71.9339 13.9087 71.3667 15.0184C70.7749 16.1528 70.4789 17.4598 70.4789 18.964C70.4789 20.271 70.7749 21.4301 71.3421 22.4904C71.9092 23.5262 72.6984 24.3646 73.7588 24.9318C74.7698 25.499 75.9535 25.7949 77.2852 25.7949C78.8141 25.7949 80.1211 25.4743 81.1568 24.8825L81.1815 24.8578V21.8986L81.0582 21.9972C80.5896 22.3425 80.0471 22.6384 79.5046 22.811C78.9374 23.0083 78.4195 23.107 77.9757 23.107C76.6933 23.107 75.6823 22.7371 74.9671 21.9233C74.2273 21.1341 73.8574 20.0491 73.8574 18.6928C73.8574 17.2871 74.2273 16.1774 74.9918 15.3636C75.7562 14.5499 76.7673 14.1306 78.0003 14.1306C79.036 14.1306 80.0964 14.4759 81.0582 15.1664L81.1815 15.265V12.1332L81.1568 12.1085C80.7376 11.9359 80.2691 11.7386 79.6279 11.6153ZM90.2071 11.5167C89.418 11.5167 88.6782 11.7633 88.037 12.2811C87.4945 12.725 87.1246 13.3662 86.804 14.1306H86.7794V11.7386H83.5735V25.4004H86.7794V18.4215C86.7794 17.2378 87.026 16.2514 87.5685 15.5363C88.111 14.7965 88.8015 14.4266 89.6399 14.4266C89.9359 14.4266 90.2318 14.5005 90.6017 14.5499C90.9469 14.6485 91.1935 14.7471 91.3662 14.8704L91.4895 14.9691V11.7633L91.4155 11.7386C91.1935 11.5906 90.7496 11.5167 90.2071 11.5167ZM98.9369 11.4427C96.6928 11.4427 94.8926 12.1085 93.6349 13.4155C92.3526 14.7225 91.7361 16.5227 91.7361 18.7914C91.7361 20.9122 92.3772 22.6384 93.6102 23.8961C94.8433 25.1291 96.5201 25.7703 98.6163 25.7703C100.811 25.7703 102.562 25.1044 103.82 23.7728C105.102 22.4411 105.718 20.6656 105.718 18.4708C105.718 16.3007 105.127 14.5745 103.918 13.3168C102.759 12.0592 101.058 11.4427 98.9369 11.4427ZM101.502 21.9479C100.91 22.7124 99.9726 23.0823 98.8135 23.0823C97.6545 23.0823 96.7174 22.7124 96.0516 21.8986C95.3858 21.1341 95.0652 20.0244 95.0652 18.6188C95.0652 17.1638 95.4104 16.0541 96.0516 15.265C96.7174 14.4759 97.6299 14.0813 98.7889 14.0813C99.9233 14.0813 100.811 14.4512 101.452 15.2157C102.093 15.9802 102.439 17.0899 102.439 18.5448C102.389 20.0244 102.118 21.1835 101.502 21.9479ZM112.87 17.4104C111.859 16.9912 111.218 16.6706 110.922 16.3994C110.675 16.1528 110.552 15.8075 110.552 15.3636C110.552 14.9937 110.7 14.6238 111.07 14.3772C111.44 14.1306 111.859 14.0073 112.475 14.0073C113.018 14.0073 113.585 14.106 114.128 14.2539C114.67 14.4019 115.163 14.6238 115.558 14.9198L115.681 15.0184V12.0099L115.607 11.9852C115.237 11.8372 114.744 11.6893 114.152 11.566C113.56 11.4673 113.018 11.418 112.574 11.418C111.045 11.418 109.787 11.7879 108.801 12.6017C107.815 13.3662 107.346 14.4019 107.346 15.6102C107.346 16.2514 107.445 16.8186 107.667 17.2871C107.889 17.7557 108.209 18.1996 108.653 18.5695C109.097 18.9147 109.738 19.3093 110.626 19.6792C111.366 19.9998 111.933 20.2464 112.278 20.4437C112.623 20.6409 112.845 20.8629 113.018 21.0355C113.141 21.2328 113.215 21.4794 113.215 21.8C113.215 22.7124 112.525 23.1563 111.119 23.1563C110.576 23.1563 110.009 23.0576 109.343 22.8357C108.678 22.6138 108.061 22.2932 107.543 21.9233L107.42 21.8246V24.9565L107.494 24.9811C107.962 25.2031 108.53 25.351 109.22 25.5237C109.911 25.647 110.527 25.7456 111.07 25.7456C112.722 25.7456 114.078 25.3757 115.04 24.5619C116.026 23.7728 116.544 22.7617 116.544 21.4547C116.544 20.5423 116.298 19.7285 115.755 19.112C115.04 18.5202 114.152 17.9036 112.87 17.4104ZM125.003 11.4427C122.759 11.4427 120.958 12.1085 119.701 13.4155C118.443 14.7225 117.802 16.5227 117.802 18.7914C117.802 20.9122 118.443 22.6384 119.676 23.8961C120.909 25.1291 122.586 25.7703 124.682 25.7703C126.877 25.7703 128.628 25.1044 129.885 23.7728C131.168 22.4411 131.784 20.6656 131.784 18.4708C131.784 16.3007 131.192 14.5745 129.984 13.3168C128.825 12.0592 127.123 11.4427 125.003 11.4427ZM127.543 21.9479C126.951 22.7124 126.014 23.0823 124.855 23.0823C123.671 23.0823 122.759 22.7124 122.093 21.8986C121.427 21.1341 121.106 20.0244 121.106 18.6188C121.106 17.1638 121.452 16.0541 122.093 15.265C122.759 14.4759 123.671 14.0813 124.83 14.0813C125.94 14.0813 126.852 14.4512 127.493 15.2157C128.135 15.9802 128.48 17.0899 128.48 18.5448C128.48 20.0244 128.159 21.1835 127.543 21.9479ZM148.923 14.3772V11.7386H145.693V7.69432L145.594 7.71898L142.536 8.6314L142.462 8.65606V11.7386H137.629V10.0124C137.629 9.22325 137.826 8.60674 138.171 8.21218C138.517 7.81762 139.034 7.62034 139.676 7.62034C140.119 7.62034 140.588 7.71898 141.106 7.94092L141.229 8.0149V5.22829L141.155 5.20363C140.711 5.05567 140.119 4.95703 139.355 4.95703C138.393 4.95703 137.555 5.17897 136.79 5.54888C136.026 5.9681 135.459 6.53529 135.039 7.29975C134.62 8.03956 134.398 8.87801 134.398 9.83976V11.7386H132.154V14.3526H134.398V25.4004H137.629V14.3772H142.462V21.4054C142.462 24.2906 143.818 25.7456 146.531 25.7456C146.975 25.7456 147.444 25.6716 147.887 25.5976C148.356 25.499 148.701 25.3757 148.898 25.2771L148.923 25.2524V22.6138L148.8 22.7124C148.603 22.8357 148.43 22.9343 148.134 23.0083C147.887 23.0823 147.665 23.107 147.493 23.107C146.852 23.107 146.408 22.959 146.087 22.5891C145.791 22.2438 145.643 21.6767 145.643 20.8382V14.3772H148.923Z" fill="#647067"/>
<path id="Vector_2" d="M0 0H15.1167V15.1167H0V0Z" fill="#647067"/>
<path id="Vector_3" d="M16.6948 0H31.8115V15.1167H16.6948V0Z" fill="#647067"/>
<path id="Vector_4" d="M0 16.6953H15.1167V31.812H0V16.6953Z" fill="#647067"/>
<path id="Vector_5" d="M16.6948 16.6953H31.8115V31.812H16.6948V16.6953Z" fill="#647067"/>
</g>
</svg>
