<svg width="24" height="24" viewBox="0 0 24 24" fill="none" xmlns="http://www.w3.org/2000/svg">
<g id="Solid chevron right sm">
<path id="Vector" fill-rule="evenodd" clip-rule="evenodd" d="M9.29289 5.29289C9.68342 4.90237 10.3166 4.90237 10.7071 5.29289L12.2119 6.79767C12.9782 7.56402 13.5964 8.18213 14.056 8.72358C14.5293 9.28106 14.893 9.82271 15.0984 10.4549C15.4247 11.4591 15.4247 12.5409 15.0984 13.5451C14.893 14.1773 14.5293 14.7189 14.056 15.2764C13.5964 15.8179 12.9782 16.436 12.2119 17.2023L10.7071 18.7071C10.3166 19.0976 9.68342 19.0976 9.29289 18.7071C8.90237 18.3166 8.90237 17.6834 9.29289 17.2929L10.7674 15.8184C11.5711 15.0147 12.1308 14.4539 12.5313 13.9821C12.9243 13.5192 13.105 13.2082 13.1963 12.9271C13.3921 12.3245 13.3921 11.6755 13.1963 11.0729C13.105 10.7918 12.9243 10.4808 12.5313 10.0179C12.1308 9.54612 11.5711 8.98532 10.7674 8.18162L9.29289 6.70711C8.90237 6.31658 8.90237 5.68342 9.29289 5.29289Z" fill="#2F3C33"/>
</g>
</svg>
