<svg width="24" height="24" viewBox="0 0 24 24" fill="none" xmlns="http://www.w3.org/2000/svg">
<g id="Monotone processor">
<rect id="Vector" x="5" y="5" width="14" height="14" rx="5" stroke="#2F3C33" stroke-width="2" stroke-linecap="round" stroke-linejoin="round"/>
<path id="Vector_2" d="M21 9L19 9" stroke="#2F3C33" stroke-width="2" stroke-linecap="round" stroke-linejoin="round"/>
<path id="Vector_3" d="M21 15L19 15" stroke="#2F3C33" stroke-width="2" stroke-linecap="round" stroke-linejoin="round"/>
<path id="Vector_4" d="M5 9L3 9" stroke="#2F3C33" stroke-width="2" stroke-linecap="round" stroke-linejoin="round"/>
<path id="Vector_5" d="M5 15L3 15" stroke="#2F3C33" stroke-width="2" stroke-linecap="round" stroke-linejoin="round"/>
<path id="Vector_6" d="M5 12L3 12" stroke="#2F3C33" stroke-width="2" stroke-linecap="round" stroke-linejoin="round"/>
<path id="Vector_7" d="M21 12L19 12" stroke="#2F3C33" stroke-width="2" stroke-linecap="round" stroke-linejoin="round"/>
<path id="Vector_8" d="M9 3.00002L9 5.00002" stroke="#2F3C33" stroke-width="2" stroke-linecap="round" stroke-linejoin="round"/>
<path id="Vector_9" d="M15 3.00002L15 5.00002" stroke="#2F3C33" stroke-width="2" stroke-linecap="round" stroke-linejoin="round"/>
<path id="Vector_10" d="M12 19L12 21" stroke="#2F3C33" stroke-width="2" stroke-linecap="round" stroke-linejoin="round"/>
<path id="Vector_11" d="M12 3.00002L12 5.00002" stroke="#2F3C33" stroke-width="2" stroke-linecap="round" stroke-linejoin="round"/>
<path id="Vector_12" d="M9 19L9 21" stroke="#2F3C33" stroke-width="2" stroke-linecap="round" stroke-linejoin="round"/>
<path id="Vector_13" d="M15 19L15 21" stroke="#2F3C33" stroke-width="2" stroke-linecap="round" stroke-linejoin="round"/>
<path id="Vector_14" d="M13.9799 12.5881C14 12.4599 14 12.3066 14 12C14 11.6934 14 11.5401 13.9799 11.4119C13.8677 10.6948 13.3052 10.1323 12.5881 10.0201C12.4599 10 12.3066 10 12 10C11.6934 10 11.5401 10 11.4119 10.0201C10.6948 10.1323 10.1323 10.6948 10.0201 11.4119C10 11.5401 10 11.6934 10 12C10 12.3066 10 12.4599 10.0201 12.5881C10.1323 13.3052 10.6948 13.8677 11.4119 13.9799C11.5401 14 11.6934 14 12 14C12.3066 14 12.4599 14 12.5881 13.9799C13.3052 13.8677 13.8677 13.3052 13.9799 12.5881Z" stroke="#2F3C33" stroke-width="2" stroke-linecap="round" stroke-linejoin="round"/>
</g>
</svg>
