<svg width="143" height="38" xmlns="http://www.w3.org/2000/svg" fill="none">

 <g>
  <title>Layer 1</title>
  <g id="Component">
   <path fill="#647067" d="m19.6629,35.5506c-2.1511,0.3715 -4.3401,0.4828 -6.6045,0.7794l-6.9067,-19.8905l0,20.7442c-2.1512,0.2226 -4.1137,0.5194 -6.1517,0.8163l0,-38l5.7368,0l7.8499,21.5609l0,-21.5609l6.0762,0l0,35.5506zm11.8884,-21.6346c2.3401,0 5.9255,-0.1113 8.0766,-0.1113l0,5.9373c-2.6797,0 -5.812,0 -8.0766,0.1114l0,8.8322c3.5478,-0.2226 7.0954,-0.5197 10.6806,-0.6311l0,5.7145l-16.7192,1.2991l0,-35.0681l16.7192,0l0,5.9375l-10.6806,0l0,7.9785zm33.1364,-7.9784l-6.2649,0l0,27.3125c-2.0381,0 -4.0761,0 -6.0383,0.074l0,-27.3865l-6.2649,0l0,-5.9376l18.5684,0l-0.0003,5.9376zm9.8123,7.5703l8.266,0l0,5.9374l-8.266,0l0,13.4709l-5.9255,0l0,-32.9162l16.8705,0l0,5.9375l-10.945,0l0,7.5704zm20.758,14.2128c3.434,0.074 6.906,0.3342 10.265,0.5194l0,5.8634c-5.397,-0.3342 -10.794,-0.6678 -16.304,-0.7794l0,-33.3241l6.039,0l0,27.7207zm15.36,6.791c1.925,0.1115 3.963,0.2229 5.925,0.4452l0,-34.9569l-5.925,0l0,34.5117zm32.382,-34.5117l-7.662,18.0723l7.662,19.9277c-2.265,-0.2969 -4.529,-0.7051 -6.794,-1.0763l-4.34,-10.9841l-4.415,10.0938c-2.189,-0.3714 -4.303,-0.4828 -6.491,-0.7796l7.774,-17.4043l-7.02,-17.8495l6.491,0l3.963,9.9824l4.227,-9.9824l6.605,0z" id="Vector"/>
  </g>
 </g>
</svg>