<svg width="92" height="32" viewBox="0 0 92 32" fill="none" xmlns="http://www.w3.org/2000/svg">
<g id="osler">
<path d="M11.9355 32C9.61792 32 7.60527 31.5498 5.89756 30.6494C4.18986 29.749 2.86334 28.471 1.918 26.8154C0.972668 25.1307 0.5 23.1556 0.5 20.89C0.5 19.1763 0.759205 17.6515 1.27762 16.3154C1.82652 14.9502 2.60414 13.7884 3.61046 12.8299C4.61679 11.8423 5.82133 11.1017 7.22408 10.6079C8.62684 10.0851 10.1973 9.82365 11.9355 9.82365C14.2531 9.82365 16.2658 10.2739 17.9735 11.1743C19.6812 12.0747 21.0077 13.3527 21.953 15.0083C22.8984 16.6639 23.371 18.6245 23.371 20.89C23.371 22.6037 23.0966 24.1432 22.5477 25.5083C22.0293 26.8734 21.2669 28.0498 20.2606 29.0373C19.2542 29.9959 18.0497 30.7365 16.647 31.2593C15.2442 31.7531 13.6737 32 11.9355 32ZM11.9355 27.861C13.0638 27.861 14.0549 27.5996 14.9088 27.0768C15.7626 26.5539 16.4182 25.7842 16.8757 24.7676C17.3636 23.722 17.6075 22.4295 17.6075 20.89C17.6075 18.5664 17.0891 16.8382 16.0523 15.7054C15.0155 14.5436 13.6432 13.9627 11.9355 13.9627C10.8072 13.9627 9.81614 14.2241 8.96228 14.7469C8.10843 15.2407 7.43755 16.0104 6.94963 17.056C6.49221 18.0726 6.2635 19.3506 6.2635 20.89C6.2635 23.1846 6.78191 24.9274 7.81873 26.1183C8.85555 27.2801 10.2278 27.861 11.9355 27.861Z" fill="white"/>
<path d="M33.0762 32C31.7649 32 30.3774 31.8693 28.9137 31.6079C27.4499 31.3465 26.1387 30.8963 24.9799 30.2573C24.492 29.9668 24.1413 29.6328 23.9278 29.2552C23.7448 28.8485 23.6686 28.4564 23.6991 28.0788C23.7601 27.6722 23.9126 27.3237 24.1565 27.0332C24.431 26.7427 24.7664 26.5539 25.1628 26.4668C25.5898 26.3797 26.0472 26.4523 26.5351 26.6846C27.7549 27.2365 28.8984 27.6286 29.9658 27.861C31.0331 28.0643 32.0851 28.166 33.122 28.166C34.5857 28.166 35.6683 27.9336 36.3696 27.4689C37.1015 26.9751 37.4675 26.3361 37.4675 25.5519C37.4675 24.8838 37.2235 24.3755 36.7356 24.027C36.2782 23.6494 35.5768 23.3734 34.6314 23.1992L30.0572 22.3714C28.1666 22.0228 26.7181 21.3693 25.7117 20.4108C24.7359 19.4232 24.248 18.1598 24.248 16.6203C24.248 15.2261 24.6444 14.0207 25.4373 13.0041C26.2606 11.9876 27.389 11.2033 28.8222 10.6515C30.2555 10.0996 31.9022 9.82365 33.7623 9.82365C35.1041 9.82365 36.3544 9.96888 37.5132 10.2593C38.7025 10.5207 39.846 10.9419 40.9439 11.5228C41.4013 11.7552 41.7062 12.0602 41.8587 12.4378C42.0417 12.8154 42.0874 13.2075 41.9959 13.6141C41.9044 13.9917 41.7215 14.3402 41.447 14.6598C41.1726 14.9502 40.8219 15.139 40.3949 15.2261C39.9985 15.2842 39.5411 15.1971 39.0227 14.9647C38.0774 14.5 37.1625 14.166 36.2782 13.9627C35.4243 13.7593 34.601 13.6577 33.8081 13.6577C32.3139 13.6577 31.2008 13.9046 30.4689 14.3983C29.7675 14.8921 29.4168 15.5456 29.4168 16.3589C29.4168 16.9689 29.6303 17.4772 30.0572 17.8838C30.4842 18.2905 31.1398 18.5664 32.0241 18.7116L36.5984 19.5394C38.5805 19.888 40.0748 20.527 41.0811 21.4564C42.1179 22.3859 42.6363 23.6349 42.6363 25.2033C42.6363 27.3237 41.7672 28.9938 40.029 30.2137C38.2908 31.4046 35.9732 32 33.0762 32Z" fill="white"/>
<path d="M51.6604 32C49.1293 32 47.2234 31.3174 45.9426 29.9523C44.6618 28.5581 44.0214 26.5249 44.0214 23.8527V3.24481C44.0214 2.3444 44.2654 1.66183 44.7533 1.1971C45.2412 0.732366 45.9426 0.5 46.8574 0.5C47.7723 0.5 48.4737 0.732366 48.9616 1.1971C49.48 1.66183 49.7392 2.3444 49.7392 3.24481V23.5913C49.7392 24.9274 50.0289 25.9149 50.6083 26.5539C51.2182 27.1929 52.072 27.5124 53.1699 27.5124C53.4138 27.5124 53.6425 27.5124 53.856 27.5124C54.0694 27.4834 54.2829 27.4544 54.4964 27.4253C54.9233 27.3672 55.213 27.4834 55.3655 27.7739C55.5179 28.0353 55.5942 28.5871 55.5942 29.4295C55.5942 30.1556 55.4417 30.722 55.1368 31.1286C54.8318 31.5353 54.3287 31.7822 53.6273 31.8693C53.3223 31.8983 53.0021 31.9274 52.6667 31.9564C52.3312 31.9855 51.9958 32 51.6604 32Z" fill="white"/>
<path d="M66.2271 32C63.696 32 61.5156 31.5498 59.6859 30.6494C57.8563 29.749 56.4383 28.471 55.4319 26.8154C54.4561 25.1598 53.9682 23.1992 53.9682 20.9336C53.9682 18.7261 54.4409 16.7946 55.3862 15.139C56.362 13.4834 57.6885 12.1909 59.3658 11.2614C61.0735 10.3029 63.0099 9.82365 65.175 9.82365C66.7607 9.82365 68.1787 10.0705 69.429 10.5643C70.7098 11.0581 71.7924 11.7697 72.6767 12.6992C73.5915 13.6286 74.2777 14.7614 74.7351 16.0975C75.223 17.4046 75.467 18.8859 75.467 20.5415C75.467 21.0643 75.2688 21.471 74.8723 21.7614C74.5064 22.0228 73.9727 22.1535 73.2713 22.1535H58.5881V19.0166H71.4417L70.7098 19.6701C70.7098 18.334 70.4963 17.2158 70.0694 16.3154C69.673 15.4149 69.0783 14.7324 68.2855 14.2676C67.5231 13.7739 66.5625 13.527 65.4037 13.527C64.1229 13.527 63.0251 13.8174 62.1103 14.3983C61.2259 14.9502 60.5398 15.749 60.0519 16.7946C59.5945 17.8112 59.3658 19.0311 59.3658 20.4544V20.7593C59.3658 23.1411 59.9452 24.9274 61.104 26.1183C62.2933 27.2801 64.0314 27.861 66.3186 27.861C67.1114 27.861 67.9958 27.7739 68.9716 27.5996C69.9779 27.3963 70.9233 27.0622 71.8076 26.5975C72.448 26.249 73.0121 26.1037 73.5001 26.1618C73.988 26.1909 74.3692 26.3506 74.6436 26.6411C74.9486 26.9315 75.1315 27.2946 75.1925 27.7303C75.2535 28.1369 75.162 28.5581 74.9181 28.9938C74.7046 29.4295 74.3234 29.8071 73.7745 30.1266C72.7072 30.7656 71.4722 31.2448 70.0694 31.5643C68.6971 31.8548 67.4164 32 66.2271 32Z" fill="white"/>
<path d="M79.7206 31.9129C78.7753 31.9129 78.0434 31.6805 77.525 31.2158C77.0371 30.722 76.7931 30.0249 76.7931 29.1245V12.6556C76.7931 11.7552 77.0371 11.0726 77.525 10.6079C78.0129 10.1432 78.699 9.91079 79.5834 9.91079C80.4677 9.91079 81.1539 10.1432 81.6418 10.6079C82.1297 11.0726 82.3737 11.7552 82.3737 12.6556V15.4004H81.9162C82.3432 13.6577 83.1818 12.3361 84.4321 11.4357C85.6823 10.5353 87.3443 9.99793 89.4179 9.82365C90.0583 9.76556 90.5615 9.92531 90.9274 10.3029C91.3239 10.6515 91.5526 11.2033 91.6136 11.9585C91.6746 12.6846 91.4916 13.2801 91.0647 13.7448C90.6682 14.1805 90.0583 14.4419 89.235 14.529L88.2286 14.6162C86.3685 14.7905 84.9657 15.3423 84.0204 16.2718C83.075 17.1722 82.6024 18.4502 82.6024 20.1058V29.1245C82.6024 30.0249 82.3584 30.722 81.8705 31.2158C81.3826 31.6805 80.666 31.9129 79.7206 31.9129Z" fill="white"/>
</g>
</svg>
