<svg width="25" height="24" viewBox="0 0 25 24" fill="none" xmlns="http://www.w3.org/2000/svg">
<g id="Solid check square">
<path id="Vector" fill-rule="evenodd" clip-rule="evenodd" d="M12.4632 2H12.5368C13.9035 2 14.9801 1.99999 15.851 2.05941C16.7387 2.11997 17.4853 2.2456 18.1788 2.53284C19.894 3.2433 21.2567 4.60602 21.9672 6.32122C22.2544 7.01469 22.38 7.76134 22.4406 8.64899C22.5 9.51986 22.5 10.5965 22.5 11.9631V12.0369C22.5 13.4035 22.5 14.4801 22.4406 15.351C22.38 16.2387 22.2544 16.9853 21.9672 17.6788C21.2567 19.394 19.894 20.7567 18.1788 21.4672C17.4853 21.7544 16.7387 21.88 15.851 21.9406C14.9801 22 13.9035 22 12.5369 22H12.4631C11.0965 22 10.0199 22 9.14899 21.9406C8.26134 21.88 7.51469 21.7544 6.82122 21.4672C5.10602 20.7567 3.7433 19.394 3.03284 17.6788C2.7456 16.9853 2.61997 16.2387 2.55941 15.351C2.49999 14.4801 2.5 13.4035 2.5 12.0369V11.9632C2.5 10.5965 2.49999 9.51986 2.55941 8.64899C2.61997 7.76134 2.7456 7.01469 3.03284 6.32122C3.7433 4.60602 5.10602 3.2433 6.82122 2.53284C7.51469 2.2456 8.26134 2.11997 9.14899 2.05941C10.0199 1.99999 11.0965 2 12.4632 2ZM18.2071 9.70711C18.5976 9.31658 18.5976 8.68342 18.2071 8.29289C17.8166 7.90237 17.1834 7.90237 16.7929 8.29289L12.7929 12.2929C11.9179 13.1679 11.6451 13.422 11.388 13.5494C10.8285 13.8267 10.1715 13.8267 9.61197 13.5494C9.35494 13.422 9.08207 13.1679 8.20711 12.2929C7.81658 11.9024 7.18342 11.9024 6.79289 12.2929C6.40237 12.6834 6.40237 13.3166 6.79289 13.7071L6.91376 13.8281C7.61251 14.5278 8.1323 15.0483 8.72394 15.3414C9.84304 15.896 11.157 15.896 12.2761 15.3414C12.8677 15.0483 13.3875 14.5278 14.0862 13.8281L18.2071 9.70711Z" fill="#F43F5E"/>
</g>
</svg>
