<svg width="32" height="32" viewBox="0 0 32 32" fill="none" xmlns="http://www.w3.org/2000/svg">
<g id="Solid arrow right sm">
<g id="Vector">
<path fill-rule="evenodd" clip-rule="evenodd" d="M9.33318 6.83263C8.90764 6.9052 8.50519 7.01247 8.11528 7.17398C6.48176 7.8506 5.18393 9.14843 4.50731 10.7819C4.22581 11.4615 4.10906 12.1793 4.05368 12.9909C4.02052 13.477 4.00778 14.0314 4.00288 14.6665H3.99984C3.26346 14.6665 2.6665 15.2635 2.6665 15.9998C2.6665 16.7362 3.26346 17.3332 3.99984 17.3332H4.00288C4.00778 17.9682 4.02052 18.5227 4.05368 19.0088C4.10906 19.8204 4.22581 20.5381 4.50731 21.2177C5.18393 22.8512 6.48176 24.1491 8.11528 24.8257C8.79488 25.1072 9.51259 25.224 10.3242 25.2793C11.1136 25.3332 12.0834 25.3332 13.2856 25.3332H18.7139C19.9161 25.3332 20.8861 25.3332 21.6754 25.2793C22.4871 25.224 23.2048 25.1072 23.8844 24.8257C25.5179 24.1491 26.8157 22.8512 27.4924 21.2177C27.7739 20.5381 27.8906 19.8204 27.946 19.0088C27.9792 18.5227 27.9919 17.9682 27.9968 17.3332H27.9998C28.7362 17.3332 29.3332 16.7362 29.3332 15.9998C29.3332 15.2635 28.7362 14.6665 27.9998 14.6665H27.9968C27.9919 14.0314 27.9792 13.477 27.946 12.9909C27.8906 12.1793 27.7739 11.4615 27.4924 10.7819C26.8157 9.14843 25.5179 7.8506 23.8844 7.17398C23.4945 7.01247 23.092 6.9052 22.6665 6.83263C22.6664 7.36531 22.6645 7.82835 22.638 8.21635C22.608 8.65612 22.542 9.096 22.362 9.53057C21.956 10.5107 21.1774 11.2894 20.1972 11.6954C19.7627 11.8754 19.3228 11.9414 18.883 11.9714C18.4653 11.9999 17.9607 11.9999 17.3758 11.9998H14.6239C14.039 11.9999 13.5343 11.9999 13.1167 11.9714C12.6769 11.9414 12.237 11.8754 11.8024 11.6954C10.8223 11.2894 10.0436 10.5107 9.63765 9.53057C9.45765 9.096 9.39164 8.65612 9.36164 8.21635C9.33516 7.82835 9.3333 7.36531 9.33318 6.83263ZM13.3332 15.9998C13.3332 16.7362 12.7362 17.3332 11.9998 17.3332C11.2635 17.3332 10.6665 16.7362 10.6665 15.9998C10.6665 15.2635 11.2635 14.6665 11.9998 14.6665C12.7362 14.6665 13.3332 15.2635 13.3332 15.9998ZM19.9998 17.3332C20.7362 17.3332 21.3332 16.7362 21.3332 15.9998C21.3332 15.2635 20.7362 14.6665 19.9998 14.6665C19.2635 14.6665 18.6665 15.2635 18.6665 15.9998C18.6665 16.7362 19.2635 17.3332 19.9998 17.3332Z" fill="#8B5CF6"/>
<path d="M19.9998 6.66955C19.6036 6.6665 19.176 6.6665 18.7141 6.6665H13.2858C12.8239 6.6665 12.3961 6.6665 11.9998 6.66955C11.9998 7.30731 12.0006 7.71935 12.0221 8.03482C12.0429 8.33882 12.0783 8.4546 12.1013 8.51008C12.2367 8.83679 12.4962 9.09635 12.8229 9.23168C12.8784 9.25466 12.9942 9.29015 13.2982 9.31089C13.6142 9.33245 14.027 9.33317 14.6665 9.33317H17.3332C17.9727 9.33317 18.3855 9.33245 18.7015 9.31089C19.0055 9.29015 19.1213 9.25466 19.1768 9.23168C19.5035 9.09635 19.763 8.83679 19.8983 8.51008C19.9213 8.4546 19.9568 8.33882 19.9776 8.03482C19.9991 7.71935 19.9998 7.30731 19.9998 6.66955Z" fill="#8B5CF6"/>
</g>
</g>
</svg>
