<svg width="24" height="24" viewBox="0 0 24 24" fill="none" xmlns="http://www.w3.org/2000/svg">
<g id="Solid arrow right sm">
<path id="Vector" fill-rule="evenodd" clip-rule="evenodd" d="M13.0309 22.2856C12.3512 22.4288 11.649 22.4288 10.9692 22.2856C10.1984 22.1232 9.4902 21.7181 8.46557 21.1321L7.58953 20.6315C6.54948 20.0377 5.83063 19.6273 5.2948 19.0359C4.82231 18.5145 4.46521 17.8991 4.24687 17.2301C3.99925 16.4715 3.99957 15.6438 4.00004 14.4461L4.00008 9.35719C4.00007 8.27341 4.00006 7.39926 4.0579 6.69138C4.11745 5.96253 4.24326 5.32234 4.54505 4.73005C5.02442 3.78924 5.78932 3.02433 6.73013 2.54497C7.32242 2.24318 7.96261 2.11737 8.69146 2.05782C9.39931 1.99998 10.2734 1.99999 11.3571 2H12.6429C13.7266 1.99999 14.6009 1.99998 15.3087 2.05782C16.0376 2.11737 16.6777 2.24318 17.27 2.54497C18.2108 3.02433 18.9757 3.78924 19.4551 4.73005C19.7569 5.32234 19.8827 5.96253 19.9423 6.69138C20.0001 7.39926 20.0001 8.27342 20.0001 9.35722L20.0001 14.4461C20.0006 15.6438 20.0009 16.4715 19.7533 17.2301C19.5349 17.8991 19.1779 18.5145 18.7054 19.0359C18.1695 19.6273 17.4507 20.0377 16.4106 20.6315L15.5346 21.1321C14.51 21.7181 13.8017 22.1232 13.0309 22.2856ZM8.00006 12C8.00006 11.4477 8.44778 11 9.00006 11H11.0001V9C11.0001 8.44772 11.4478 8 12.0001 8C12.5523 8 13.0001 8.44772 13.0001 9V11H15.0001C15.5523 11 16.0001 11.4477 16.0001 12C16.0001 12.5523 15.5523 13 15.0001 13H13.0001V15C13.0001 15.5523 12.5523 16 12.0001 16C11.4478 16 11.0001 15.5523 11.0001 15V13H9.00006C8.44778 13 8.00006 12.5523 8.00006 12Z" fill="#849087"/>
</g>
</svg>
