<svg width="24" height="24" viewBox="0 0 24 24" fill="none" xmlns="http://www.w3.org/2000/svg">
<g id="Solid arrow right sm">
<g id="Vector">
<path d="M12 2C12.5523 2 13 2.44772 13 3L13 15.1716C13.1127 15.1317 13.2236 15.0849 13.332 15.0312C13.7361 14.831 14.1453 14.4405 15.2929 13.2929C15.6834 12.9024 16.3166 12.9024 16.7071 13.2929C17.0976 13.6834 17.0976 14.3166 16.7071 14.7071L16.5714 14.8429C15.613 15.8021 14.9581 16.4575 14.2201 16.8232C12.8212 17.5164 11.1788 17.5164 9.77992 16.8232C9.04193 16.4575 8.38702 15.8021 7.42858 14.8429L7.2929 14.7071C6.90237 14.3166 6.90237 13.6834 7.2929 13.2929C7.68342 12.9024 8.31658 12.9024 8.70711 13.2929C9.8547 14.4405 10.2639 14.831 10.668 15.0312C10.7764 15.0849 10.8873 15.1317 11 15.1716L11 3C11 2.44772 11.4477 2 12 2Z" fill="white"/>
<path d="M4 13C4 12.4477 3.55229 12 3 12C2.44772 12 2 12.4477 2 13V14.6428C1.99999 15.7266 1.99998 16.6007 2.05782 17.3086C2.11737 18.0375 2.24318 18.6777 2.54497 19.27C3.02434 20.2108 3.78924 20.9757 4.73005 21.455C5.32234 21.7568 5.96253 21.8826 6.69138 21.9422C7.39926 22 8.27342 22 9.35722 22H14.6428C15.7266 22 16.6007 22 17.3086 21.9422C18.0375 21.8826 18.6777 21.7568 19.27 21.455C20.2108 20.9757 20.9757 20.2108 21.455 19.27C21.7568 18.6777 21.8826 18.0375 21.9422 17.3086C22 16.6008 22 15.7267 22 14.6429V13C22 12.4477 21.5523 12 21 12C20.4477 12 20 12.4477 20 13V14.6C20 15.7366 19.9992 16.5289 19.9488 17.1458C19.8994 17.7509 19.8072 18.0986 19.673 18.362C19.3854 18.9265 18.9265 19.3854 18.362 19.673C18.0986 19.8072 17.7509 19.8994 17.1458 19.9488C16.5289 19.9992 15.7366 20 14.6 20H9.4C8.2634 20 7.47108 19.9992 6.85424 19.9488C6.24907 19.8994 5.90138 19.8072 5.63803 19.673C5.07354 19.3854 4.6146 18.9265 4.32698 18.362C4.19279 18.0986 4.10062 17.7509 4.05118 17.1458C4.00078 16.5289 4 15.7366 4 14.6V13Z" fill="white"/>
</g>
</g>
</svg>
