<svg width="20" height="20" viewBox="0 0 20 20" fill="none" xmlns="http://www.w3.org/2000/svg">
<g id="Solid star">
<path id="Vector" d="M11.0713 2.55387C10.4038 2.18692 9.59503 2.18692 8.92754 2.55387C8.64768 2.70773 8.44657 2.93696 8.2957 3.16292C8.14431 3.38965 8.01396 3.65817 7.89311 3.94752C7.65664 4.51374 7.40372 5.29218 7.08853 6.26226L7.07589 6.30116C7.01799 6.47937 6.98701 6.57323 6.96028 6.63964L6.95747 6.64655L6.95002 6.64709C6.87861 6.65199 6.77977 6.65244 6.59239 6.65244H6.55148C5.53149 6.65243 4.71299 6.65243 4.10141 6.70236C3.78887 6.72787 3.49321 6.76887 3.2308 6.84278C2.96929 6.91644 2.68912 7.03687 2.45632 7.25549C1.90105 7.77692 1.65112 8.54615 1.79385 9.29437C1.85369 9.60807 2.00956 9.87018 2.17783 10.0835C2.34668 10.2975 2.56178 10.5045 2.79963 10.7088C3.26506 11.1087 3.92724 11.5898 4.75244 12.1893L4.78554 12.2134C4.93713 12.3235 5.01683 12.382 5.07172 12.4279L5.07742 12.4327L5.07564 12.44C5.05823 12.5094 5.02812 12.6035 4.97022 12.7818L4.95757 12.8207C4.64237 13.7907 4.38944 14.5692 4.24793 15.1662C4.17562 15.4714 4.12325 15.7652 4.11245 16.0376C4.10169 16.3091 4.12965 16.6128 4.26563 16.9017C4.58995 17.591 5.2443 18.0664 6 18.1618C6.31685 18.2019 6.61429 18.1346 6.86916 18.0405C7.1249 17.946 7.38819 17.8054 7.65604 17.6424C8.18016 17.3233 8.84234 16.8422 9.66752 16.2426L9.70062 16.2186C9.85221 16.1084 9.93244 16.0507 9.9931 16.0127L9.99943 16.0088L10.0058 16.0127C10.0664 16.0507 10.1467 16.1084 10.2983 16.2186L10.3313 16.2426C11.1565 16.8422 11.8187 17.3233 12.3428 17.6424C12.6107 17.8054 12.874 17.946 13.1297 18.0405C13.3846 18.1346 13.682 18.2019 13.9989 18.1618C14.7546 18.0664 15.4089 17.591 15.7332 16.9017C15.8692 16.6128 15.8972 16.3091 15.8864 16.0376C15.8756 15.7652 15.8233 15.4714 15.7509 15.1662C15.6094 14.5692 15.3565 13.7908 15.0413 12.8208L15.0287 12.7818C14.9708 12.6035 14.9406 12.5094 14.9232 12.44L14.9215 12.4327L14.9272 12.4279C14.982 12.382 15.0617 12.3235 15.2133 12.2134L15.2464 12.1893C16.0716 11.5898 16.7338 11.1087 17.1992 10.7088C17.4371 10.5045 17.6522 10.2975 17.821 10.0835C17.9893 9.87018 18.1452 9.60807 18.205 9.29437C18.3478 8.54615 18.0978 7.77692 17.5426 7.25549C17.3098 7.03687 17.0296 6.91644 16.7681 6.84278C16.5057 6.76887 16.21 6.72787 15.8975 6.70236C15.2859 6.65243 14.4674 6.65243 13.4474 6.65244H13.4065C13.2191 6.65244 13.1203 6.65199 13.0489 6.64709L13.0414 6.64654L13.0386 6.63964C13.0119 6.57323 12.9809 6.47937 12.923 6.30116L12.9103 6.26226C12.5952 5.29218 12.3422 4.51374 12.1058 3.94752C11.9849 3.65817 11.8546 3.38965 11.7032 3.16292C11.5523 2.93696 11.3512 2.70773 11.0713 2.55387Z" fill="#C5C8C6"/>
</g>
</svg>
