<svg width="25" height="24" viewBox="0 0 25 24" fill="none" xmlns="http://www.w3.org/2000/svg">
<g id="Solid arrow right sm">
<path id="Vector" d="M21.5 18V11C21.5 10.6934 21.5 10.5401 21.4799 10.4119C21.3677 9.69478 20.8052 9.13226 20.0881 9.02007C19.9599 9 19.8066 9 19.5 9C19.1934 9 19.0401 9 18.9119 9.02007C18.1948 9.13226 17.6323 9.69478 17.5201 10.4119C17.5 10.5401 17.5 10.6934 17.5 11V18C17.5 18.3066 17.5 18.4599 17.5201 18.5881C17.6323 19.3052 18.1948 19.8677 18.9119 19.9799C19.0401 20 19.1934 20 19.5 20C19.8066 20 19.9599 20 20.0881 19.9799C20.8052 19.8677 21.3677 19.3052 21.4799 18.5881C21.5 18.4599 21.5 18.3066 21.5 18Z" stroke="white" stroke-width="2" stroke-linecap="round" stroke-linejoin="round"/>
<path id="Vector_2" d="M7.5 18V15C7.5 14.6934 7.5 14.5401 7.47993 14.4119C7.36774 13.6948 6.80522 13.1323 6.08814 13.0201C5.95985 13 5.80657 13 5.5 13C5.19343 13 5.04015 13 4.91186 13.0201C4.19478 13.1323 3.63226 13.6948 3.52007 14.4119C3.5 14.5401 3.5 14.6934 3.5 15V18C3.5 18.3066 3.5 18.4599 3.52007 18.5881C3.63226 19.3052 4.19478 19.8677 4.91186 19.9799C5.04015 20 5.19343 20 5.5 20C5.80657 20 5.95985 20 6.08814 19.9799C6.80522 19.8677 7.36774 19.3052 7.47993 18.5881C7.5 18.4599 7.5 18.3066 7.5 18Z" stroke="white" stroke-width="2" stroke-linecap="round" stroke-linejoin="round"/>
<path id="Vector_3" d="M14.5 18V6C14.5 5.69343 14.5 5.54015 14.4799 5.41186C14.3677 4.69478 13.8052 4.13226 13.0881 4.02007C12.9599 4 12.8066 4 12.5 4C12.1934 4 12.0401 4 11.9119 4.02007C11.1948 4.13226 10.6323 4.69478 10.5201 5.41186C10.5 5.54015 10.5 5.69343 10.5 6V18C10.5 18.3066 10.5 18.4599 10.5201 18.5881C10.6323 19.3052 11.1948 19.8677 11.9119 19.9799C12.0401 20 12.1934 20 12.5 20C12.8066 20 12.9599 20 13.0881 19.9799C13.8052 19.8677 14.3677 19.3052 14.4799 18.5881C14.5 18.4599 14.5 18.3066 14.5 18Z" stroke="white" stroke-width="2" stroke-linecap="round" stroke-linejoin="round"/>
</g>
</svg>
