<svg width="24" height="24" viewBox="0 0 24 24" fill="none" xmlns="http://www.w3.org/2000/svg">
<g id="Solid stethoscope">
<path id="Vector" d="M14.3333 4.11352C14.854 3.92948 15.127 3.35815 14.9429 2.83744C14.7589 2.31672 14.1875 2.0438 13.6668 2.22784C12.1146 2.77648 11.0001 4.25679 11.0001 5.99998L11 9.13756C10.9996 9.93294 10.9993 10.5236 11.1364 11.0353C11.5062 12.4156 12.5844 13.4938 13.9648 13.8637C14.2723 13.9461 14.6083 13.9788 15.0001 13.9918V16C15.0001 16.9773 14.9952 17.3199 14.9424 17.5853C14.7057 18.7754 13.7754 19.7057 12.5853 19.9424C12.3199 19.9952 11.9773 20 11.0001 20C10.0228 20 9.68024 19.9952 9.41479 19.9424C8.22472 19.7057 7.29443 18.7754 7.05771 17.5853C7.00491 17.3199 7.00007 16.9773 7.00007 16V12C7.00007 11.9716 6.99888 11.9434 6.99655 11.9156C8.0202 11.6522 8.80206 10.8032 8.96797 9.74275C9.0005 9.53488 9.0003 9.30562 9.0001 9.05938L9.00007 9.00003L9.0001 8.94069C9.0003 8.69445 9.0005 8.46518 8.96797 8.25731C8.7886 7.11084 7.88925 6.21149 6.74278 6.03212C6.53491 5.9996 6.30565 5.99979 6.0594 6L6.00007 6.00003L5.94073 6C5.69448 5.99979 5.46522 5.9996 5.25735 6.03212C4.11088 6.21149 3.21153 7.11084 3.03216 8.25731C2.99963 8.46518 2.99983 8.69445 3.00003 8.94069L3.00007 9.00003L3.00003 9.05937C2.99983 9.30561 2.99963 9.53488 3.03216 9.74275C3.19807 10.8032 3.97993 11.6522 5.00358 11.9156C5.00125 11.9434 5.00007 11.9716 5.00007 12L5.00005 16.1158C4.99984 16.9334 4.99971 17.4907 5.09614 17.9755C5.49067 19.9589 7.04116 21.5094 9.02461 21.904C9.50942 22.0004 10.0667 22.0003 10.8843 22H11.1158C11.9334 22.0003 12.4907 22.0004 12.9755 21.904C14.959 21.5094 16.5095 19.9589 16.904 17.9755C17.0004 17.4907 17.0003 16.9334 17.0001 16.1158L17.0001 13.9918C17.3919 13.9788 17.7279 13.9461 18.0353 13.8637C19.4157 13.4938 20.4939 12.4156 20.8638 11.0353C21.0009 10.5236 21.0005 9.93294 21.0001 9.13755L21.0001 5.99998C21.0001 4.25679 19.8856 2.77648 18.3333 2.22784C17.8126 2.0438 17.2413 2.31672 17.0572 2.83744C16.8732 3.35815 17.1461 3.92948 17.6668 4.11352C18.445 4.38856 19.0001 5.13073 19.0001 5.99998V8.99998C19.0001 9.99433 18.9915 10.2953 18.9319 10.5176C18.747 11.2078 18.2079 11.7469 17.5177 11.9318C17.2954 11.9914 16.9944 12 16.0001 12C15.0057 12 14.7047 11.9914 14.4824 11.9318C13.7922 11.7469 13.2531 11.2078 13.0682 10.5176C13.0087 10.2953 13.0001 9.99433 13.0001 8.99998V5.99998C13.0001 5.13073 13.5552 4.38856 14.3333 4.11352Z" fill="#647067"/>
</g>
</svg>
