<svg width="24" height="24" viewBox="0 0 24 24" fill="none" xmlns="http://www.w3.org/2000/svg">
<g id="Solid arrow right sm">
<g id="Vector">
<path fill-rule="evenodd" clip-rule="evenodd" d="M7.22836 5.85196C7.41618 5.39853 7.71035 5.00258 8.08074 4.69427C8.39398 6.01638 9.58212 7.00001 11 7.00001H13C14.4179 7.00001 15.606 6.01635 15.9193 4.69422C16.5085 5.18499 16.9059 5.89757 16.9856 6.70596C17.0397 7.25558 17.5291 7.65726 18.0788 7.60313C18.6284 7.54899 19.0301 7.05955 18.9759 6.50992C18.7421 4.13604 16.864 2.25789 14.4901 2.02409C14.2447 1.99992 13.9665 1.99995 13.5579 2L11.9645 2.00001C11.0627 2 10.3353 2 9.74331 2.04039C9.13456 2.08192 8.59628 2.16949 8.08658 2.38061C6.86144 2.88808 5.88807 3.86145 5.3806 5.08659C5.16948 5.59629 5.08191 6.13457 5.04038 6.74332C4.99999 7.33532 4.99999 8.06273 5 8.96449V15.0355C4.99999 15.9373 4.99999 16.6647 5.04038 17.2567C5.08191 17.8654 5.16948 18.4037 5.3806 18.9134C5.88807 20.1386 6.86144 21.1119 8.08658 21.6194C8.59628 21.8305 9.13456 21.9181 9.74331 21.9596C10.3353 22 11.0627 22 11.9645 22L12.6737 22.0001C13.901 22.0005 14.739 22.0008 15.4514 21.7847C17.0494 21.3 18.3 20.0494 18.7847 18.4514C19.0008 17.739 19.0005 16.901 19 15.6737L19 15.5C19 14.9477 18.5523 14.5 18 14.5C17.4477 14.5 17 14.9477 17 15.5C17 16.9683 16.9891 17.4808 16.8708 17.8709C16.58 18.8297 15.8297 19.58 14.8709 19.8708C14.4808 19.9892 13.9683 20 12.5 20H12C11.0544 20 10.3953 19.9995 9.87945 19.9643C9.37254 19.9297 9.07733 19.865 8.85195 19.7716C8.11687 19.4672 7.53284 18.8831 7.22836 18.1481C7.135 17.9227 7.07033 17.6275 7.03574 17.1206C7.00054 16.6047 7 15.9456 7 15V9.00001C7 8.05444 7.00054 7.39535 7.03574 6.87946C7.07033 6.37255 7.135 6.07734 7.22836 5.85196Z" fill="#F43F5E"/>
<path d="M21.7071 8.70712C22.0976 8.31659 22.0976 7.68343 21.7071 7.2929C21.3166 6.90238 20.6834 6.90238 20.2929 7.2929L15.2929 12.2929C14.4179 13.1679 14.1451 13.422 13.888 13.5494C13.3285 13.8267 12.6715 13.8267 12.112 13.5494C11.8549 13.422 11.5821 13.1679 10.7071 12.2929C10.3166 11.9024 9.68342 11.9024 9.29289 12.2929C8.90237 12.6834 8.90237 13.3166 9.29289 13.7071L9.41376 13.8281C10.1125 14.5278 10.6323 15.0483 11.2239 15.3414C12.343 15.896 13.657 15.896 14.7761 15.3414C15.3677 15.0483 15.8875 14.5278 16.5862 13.8281L21.7071 8.70712Z" fill="#F43F5E"/>
</g>
</g>
</svg>
