<svg width="33" height="32" viewBox="0 0 33 32" fill="none" xmlns="http://www.w3.org/2000/svg">
<g id="Social Media">
<path id="Vector" fill-rule="evenodd" clip-rule="evenodd" d="M26.8887 7.21912C28.0355 7.52721 28.9427 8.43436 29.2507 9.58112C29.8156 11.6693 29.8327 15.9996 29.8327 15.9996C29.8327 15.9996 29.8327 20.3471 29.2679 22.4181C28.9598 23.5649 28.0526 24.472 26.9059 24.7801C24.8348 25.3449 16.4993 25.3449 16.4993 25.3449C16.4993 25.3449 8.16388 25.3449 6.09285 24.7801C4.94607 24.472 4.03893 23.5649 3.73084 22.4181C3.16602 20.33 3.16602 15.9996 3.16602 15.9996C3.16602 15.9996 3.16602 11.6693 3.71373 9.59824C4.02181 8.45147 4.92896 7.54433 6.07573 7.23624C8.14676 6.67141 16.4822 6.6543 16.4822 6.6543C16.4822 6.6543 24.8177 6.6543 26.8887 7.21912ZM20.7441 15.9996L13.8293 20.0047V11.9945L20.7441 15.9996Z" fill="white"/>
</g>
</svg>
