<svg width="146" height="33" viewBox="0 0 146 33" fill="none" xmlns="http://www.w3.org/2000/svg">
<g id="Group">
<g id="g">
<path id="Subtract" fill-rule="evenodd" clip-rule="evenodd" d="M42.1232 1.02323C44.1032 1.55632 45.6644 3.11752 46.1975 5.09757C47.1875 8.71497 47.1495 16.2544 47.1495 16.2544C47.1495 16.2544 47.1495 23.7558 46.1975 27.3732C45.6644 29.3532 44.1032 30.9144 42.1232 31.4475C38.5058 32.3994 24.0362 32.3994 24.0362 32.3994C24.0362 32.3994 9.60462 32.3994 5.94914 31.4094C3.96909 30.8763 2.40789 29.3151 1.8748 27.3351C0.922852 23.7558 0.922852 16.2163 0.922852 16.2163C0.922852 16.2163 0.922852 8.71497 1.8748 5.09757C2.40789 3.11752 4.00716 1.51824 5.94914 0.985151C9.56654 0.0332031 24.0362 0.0332031 24.0362 0.0332031C24.0362 0.0332031 38.5058 0.0332031 42.1232 1.02323ZM31.4613 16.2173L19.4287 23.1475V9.28711L31.4613 16.2173Z" fill="#647067"/>
</g>
<g id="g_2">
<g id="g_3">
<path id="path" d="M68.0542 29.5048C67.1403 28.8955 66.493 27.9436 66.1122 26.6108C65.7314 25.3162 65.541 23.5646 65.541 21.4322V18.5002C65.541 16.3298 65.7695 14.5782 66.1883 13.2455C66.6453 11.9127 67.3307 10.9608 68.2446 10.3516C69.1965 9.74231 70.415 9.43768 71.9381 9.43768C73.4231 9.43768 74.6416 9.74231 75.5555 10.3516C76.4694 10.9608 77.1167 11.9508 77.5356 13.2455C77.9544 14.5401 78.1829 16.2917 78.1829 18.5002V21.4322C78.1829 23.6027 77.9925 25.3162 77.5736 26.6489C77.1548 27.9436 76.5075 28.9336 75.5936 29.5428C74.6797 30.1521 73.4231 30.4567 71.862 30.4567C70.2627 30.4186 68.968 30.114 68.0542 29.5048ZM73.1947 26.3062C73.4612 25.6589 73.5755 24.5546 73.5755 23.0696V16.7486C73.5755 15.3017 73.4612 14.2355 73.1947 13.5501C72.9281 12.8647 72.5093 12.5601 71.862 12.5601C71.2527 12.5601 70.7958 12.9028 70.5673 13.5501C70.3008 14.2355 70.1865 15.3017 70.1865 16.7486V23.0696C70.1865 24.5546 70.3008 25.6589 70.5673 26.3062C70.7958 26.9535 71.2527 27.2962 71.9 27.2962C72.5093 27.2962 72.9281 26.9916 73.1947 26.3062Z" fill="#647067"/>
<path id="path_2" d="M138.346 21.4704V22.4985C138.346 23.7931 138.384 24.7831 138.46 25.4305C138.537 26.0778 138.689 26.5728 138.955 26.8393C139.184 27.144 139.565 27.2963 140.098 27.2963C140.783 27.2963 141.24 27.0297 141.507 26.4966C141.773 25.9635 141.887 25.0878 141.926 23.8312L145.848 24.0597C145.886 24.25 145.886 24.4785 145.886 24.7831C145.886 26.649 145.391 28.0578 144.363 28.9717C143.334 29.8856 141.887 30.3425 140.022 30.3425C137.775 30.3425 136.214 29.619 135.3 28.2101C134.386 26.8013 133.929 24.6308 133.929 21.6607V18.1195C133.929 15.0733 134.386 12.8647 135.338 11.4559C136.29 10.047 137.889 9.36157 140.136 9.36157C141.697 9.36157 142.916 9.6662 143.753 10.2374C144.591 10.8085 145.162 11.7224 145.505 12.9028C145.848 14.1213 146 15.7967 146 17.9291V21.3942H138.346V21.4704ZM138.917 12.9409C138.689 13.2455 138.537 13.7025 138.46 14.3498C138.384 14.9971 138.346 15.9871 138.346 17.3199V18.7668H141.697V17.3199C141.697 16.0252 141.659 15.0352 141.583 14.3498C141.507 13.6644 141.316 13.2074 141.088 12.9409C140.859 12.6744 140.479 12.522 140.022 12.522C139.489 12.484 139.146 12.6363 138.917 12.9409Z" fill="#647067"/>
<path id="path_3" d="M56.9354 21.0888L51.7568 2.31641H56.2881L58.1158 10.8078C58.5728 12.9021 58.9155 14.6917 59.144 16.1768H59.2582C59.4105 15.1106 59.7532 13.359 60.2863 10.8459L62.1902 2.31641H66.7215L61.4667 21.0888V30.0752H56.9735V21.0888H56.9354Z" fill="#647067"/>
<path id="path_4" d="M92.9193 9.8186V30.1141H89.3399L88.9592 27.6391H88.8449C87.893 29.5049 86.4079 30.4568 84.466 30.4568C83.1332 30.4568 82.1432 29.9999 81.4959 29.1241C80.8486 28.2483 80.5439 26.8775 80.5439 24.9736V9.8186H85.1133V24.7071C85.1133 25.6209 85.2275 26.2683 85.4179 26.649C85.6083 27.0298 85.951 27.2202 86.4079 27.2202C86.7887 27.2202 87.1695 27.106 87.5503 26.8394C87.9311 26.611 88.1976 26.3063 88.3499 25.9256V9.8186H92.9193Z" fill="#647067"/>
<path id="path_5" d="M116.337 9.8186V30.1141H112.757L112.377 27.6391H112.262C111.31 29.5049 109.825 30.4568 107.883 30.4568C106.551 30.4568 105.561 29.9999 104.913 29.1241C104.266 28.2483 103.961 26.8775 103.961 24.9736V9.8186H108.531V24.7071C108.531 25.6209 108.645 26.2683 108.835 26.649C109.026 27.0298 109.368 27.2202 109.825 27.2202C110.206 27.2202 110.587 27.106 110.968 26.8394C111.349 26.611 111.615 26.3063 111.767 25.9256V9.8186H116.337Z" fill="#647067"/>
<path id="path_6" d="M105.333 6.00996H100.801V30.0752H96.3462V6.00996H91.8149V2.31641H105.333V6.00996Z" fill="#647067"/>
<path id="path_7" d="M131.454 13.0551C131.187 11.7605 130.73 10.8466 130.121 10.2755C129.512 9.70428 128.636 9.39966 127.57 9.39966C126.732 9.39966 125.933 9.62813 125.209 10.1231C124.486 10.5801 123.915 11.2274 123.534 11.989H123.496V1.28906H119.079V30.076H122.848L123.305 28.1721H123.42C123.762 28.8575 124.295 29.3906 125.019 29.8094C125.742 30.1902 126.504 30.4187 127.38 30.4187C128.941 30.4187 130.045 29.6952 130.769 28.2863C131.492 26.8774 131.873 24.6308 131.873 21.6227V18.4241C131.835 16.1014 131.72 14.3117 131.454 13.0551ZM127.265 21.3181C127.265 22.8031 127.189 23.9454 127.075 24.7831C126.961 25.6209 126.732 26.2301 126.466 26.5728C126.161 26.9155 125.78 27.1059 125.323 27.1059C124.943 27.1059 124.6 27.0297 124.295 26.8394C123.991 26.649 123.724 26.3824 123.534 26.0397V14.5402C123.686 14.0071 123.953 13.5502 124.333 13.1694C124.714 12.8267 125.133 12.6363 125.552 12.6363C126.009 12.6363 126.39 12.8267 126.618 13.1694C126.885 13.5502 127.037 14.1594 127.151 14.9971C127.265 15.8729 127.303 17.0914 127.303 18.6526V21.3181H127.265Z" fill="#647067"/>
</g>
</g>
</g>
</svg>
